<?xml version="1.0" encoding="UTF-8" standalone="no"?>
<!-- Created with Inkscape (http://www.inkscape.org/) -->

<svg
   width="30.466103in"
   height="12.398661in"
   viewBox="0 0 773.83905 314.92598"
   version="1.1"
   id="svg1"
   xml:space="preserve"
   xmlns:xlink="http://www.w3.org/1999/xlink"
   xmlns="http://www.w3.org/2000/svg"
   xmlns:svg="http://www.w3.org/2000/svg"><defs
     id="defs1"><linearGradient
       id="linearGradient57"><stop
         style="stop-color:#3fc7e4;stop-opacity:1;"
         offset="0.10970259"
         id="stop57" /><stop
         style="stop-color:#e478ff;stop-opacity:1;"
         offset="0.28481638"
         id="stop66" /><stop
         style="stop-color:#ff3b3b;stop-opacity:1;"
         offset="0.50339389"
         id="stop61" /><stop
         style="stop-color:#deb031;stop-opacity:1;"
         offset="0.70288467"
         id="stop60" /><stop
         style="stop-color:#13ec73;stop-opacity:1;"
         offset="0.91754234"
         id="stop58" /></linearGradient><linearGradient
       id="swatch18"><stop
         style="stop-color:#000000;stop-opacity:1;"
         offset="0"
         id="stop18" /></linearGradient><linearGradient
       xlink:href="#linearGradient57"
       id="linearGradient58"
       x1="8374.9951"
       y1="6955.3589"
       x2="8991.2812"
       y2="6523.8306"
       gradientUnits="userSpaceOnUse"
       spreadMethod="pad" /><linearGradient
       xlink:href="#linearGradient57"
       id="linearGradient5"
       gradientUnits="userSpaceOnUse"
       x1="8374.9951"
       y1="6955.3589"
       x2="8991.2812"
       y2="6523.8306"
       spreadMethod="pad" /></defs><g
     id="layer1"
     transform="translate(-8296.2178,-6604.7532)"><g
       id="g85"
       transform="matrix(1.0944098,0,0,1.0944098,8194.6558,6211.5407)"><path
         style="font-size:35.2778px;font-family:'VCR OSD Mono';-inkscape-font-specification:'VCR OSD Mono, Normal';fill:#1a1a1a;stroke-width:5;stroke-linecap:round;stroke-linejoin:round;stroke-dashoffset:0.907087;paint-order:stroke fill markers"
         d="m 172.45779,636.7148 h 10.3353 v -5.16764 h -1.72255 v -1.72255 h -1.72255 v -1.72255 h -3.4451 v 1.72255 h -1.72255 v 1.72255 h -1.72255 z m 0,10.3353 h -3.4451 v -17.22549 h 1.72255 v -1.72255 h 1.72255 v -1.72255 h 1.72255 v -1.72255 h 1.72255 v -1.72255 h 3.4451 v 1.72255 h 1.72255 v 1.72255 h 1.72255 v 1.72255 h 1.72254 v 1.72255 h 1.72255 v 17.22549 h -3.44509 v -6.8902 h -10.3353 z m 43.06373,-3.4451 h 6.89019 v -1.72255 h 1.72255 v -1.72255 h 3.4451 v 3.4451 h -1.72255 v 1.72255 h -1.72255 v 1.72255 h -10.33529 v -1.72255 h -1.72255 V 643.605 h -1.72255 v -17.22549 h 1.72255 v -1.72255 h 1.72255 v -1.72255 h 10.33529 v 1.72255 h 1.72255 v 1.72255 h 1.72255 v 3.4451 h -3.4451 v -1.72255 h -1.72255 v -1.72255 h -6.89019 v 1.72255 h -1.72255 v 13.78039 h 1.72255 z m 18.94804,3.4451 v -3.4451 h 8.61274 v -1.72255 h 1.72255 v -5.16765 h -1.72255 v 1.72255 h -1.72255 v 1.72255 h -6.89019 v -1.72255 h -1.72255 v -1.72255 h -1.72255 v -10.33529 h 3.4451 v 8.61274 h 1.72255 v 1.72255 h 3.44509 v -1.72255 h 1.72255 v -1.72255 h 1.72255 v -3.44509 h 1.72255 v -3.4451 h 3.4451 V 643.605 h -1.72255 v 1.72255 h -1.72255 v 1.72255 z m 25.83823,-3.4451 h 1.72255 v -1.72255 h 1.72255 v -1.72255 h 1.72255 v -5.16765 h -1.72255 v -1.72255 h -1.72255 v -1.72254 h -1.72255 v 1.72254 h -1.72255 v 1.72255 h -1.72255 v 5.16765 h 1.72255 v 1.72255 h 1.72255 z m -5.16765,0 v 3.4451 h -3.4451 v -24.11569 h 3.4451 v 8.61275 h 1.72255 v -1.72255 h 1.72255 v -1.72255 h 5.16765 v 1.72255 h 1.72255 v 1.72255 h 1.72255 v 1.72254 h 1.72254 v 8.61275 h -1.72254 v 1.72255 h -1.72255 v 1.72255 h -1.72255 v 1.72255 h -5.16765 v -1.72255 h -1.72255 V 643.605 Z m 20.67059,-10.3353 v 1.72255 h 10.33529 v -1.72255 h -1.72255 v -1.72254 h -6.89019 v 1.72254 z m 13.78039,8.61275 v 1.72255 h -1.72255 v 1.72255 h -1.72255 v 1.72255 h -10.33529 v -1.72255 h -1.72255 V 643.605 h -1.72255 v -12.05784 h 1.72255 v -1.72255 h 1.72255 v -1.72255 h 10.33529 v 1.72255 h 1.72255 v 1.72255 h 1.72255 v 5.16764 h -1.72255 v 1.72255 h -12.05784 v 3.4451 h 1.72255 v 1.72255 h 6.89019 v -1.72255 z m 6.8902,-5.16765 v 10.3353 h -3.4451 v -18.94804 h 3.4451 v 3.4451 h 1.72255 v -1.72255 h 1.72255 v -1.72255 h 6.8902 v 1.72255 h 1.72254 v 1.72255 h 1.72255 v 3.44509 h -3.44509 v -1.72255 h -1.72255 v -1.72254 h -3.4451 v 1.72254 h -1.72255 v 1.72255 h -1.72255 v 1.72255 z m 18.94803,6.8902 h -1.72255 v -3.4451 h 3.4451 v 1.72255 h 1.72255 v 1.72255 h 6.89019 v -3.4451 h -3.44509 v -1.72255 h -3.4451 v -1.72255 h -3.4451 v -1.72255 h -1.72255 v -3.44509 h 1.72255 v -1.72255 h 1.72255 v -1.72255 h 10.33529 v 1.72255 h 1.72255 v 1.72255 h 1.72255 v 3.44509 h -3.4451 v -1.72255 h -1.72255 v -1.72254 h -6.89019 v 3.44509 h 5.16765 v 1.72255 h 3.44509 v 1.72255 h 1.72255 v 1.72255 h 1.72255 v 3.4451 h -1.72255 v 1.72255 h -1.72255 v 1.72255 H 317.1519 v -1.72255 h -1.72255 z m 22.39314,-10.3353 v 1.72255 h 10.3353 v -1.72255 h -1.72255 v -1.72254 h -6.8902 v 1.72254 z m 13.78039,8.61275 v 1.72255 h -1.72254 v 1.72255 h -1.72255 v 1.72255 h -10.3353 v -1.72255 h -1.72255 V 643.605 h -1.72254 v -12.05784 h 1.72254 v -1.72255 h 1.72255 v -1.72255 h 10.3353 v 1.72255 h 1.72255 v 1.72255 h 1.72254 v 5.16764 h -1.72254 v 1.72255 h -12.05785 v 3.4451 h 1.72255 v 1.72255 h 6.8902 v -1.72255 z m 17.2255,0 v -1.72255 h 3.4451 v 3.4451 h -1.72255 v 1.72255 h -1.72255 v 1.72255 h -10.33529 v -1.72255 h -1.72255 V 643.605 h -1.72255 v -12.05784 h 1.72255 v -1.72255 h 1.72255 v -1.72255 h 10.33529 v 1.72255 h 1.72255 v 1.72255 h 1.72255 v 3.44509 h -3.4451 v -1.72255 h -1.72255 v -1.72254 h -6.89019 v 1.72254 h -1.72255 v 8.61275 h 1.72255 v 1.72255 h 6.89019 v -1.72255 z m 6.89019,-13.78039 h 3.44509 v 13.78039 h 1.72255 v 1.72255 h 6.8902 v -1.72255 h 1.72255 v -13.78039 h 3.4451 V 643.605 h -1.72255 v 1.72255 h -1.72255 v 1.72255 h -10.3353 v -1.72255 h -1.72254 V 643.605 h -1.72255 z m 24.11569,8.61274 v 10.3353 h -3.4451 v -18.94804 h 3.4451 v 3.4451 h 1.72255 v -1.72255 h 1.72255 v -1.72255 h 6.89019 v 1.72255 h 1.72255 v 1.72255 h 1.72255 v 3.44509 h -3.4451 V 633.2697 H 408.447 v -1.72254 h -3.4451 v 1.72254 h -1.72254 v 1.72255 h -1.72255 v 1.72255 z m 27.56079,-12.05784 v 3.4451 h -3.4451 v -3.4451 z m 1.72255,18.94804 h 1.72254 v 3.4451 h -3.44509 v -1.72255 H 425.6725 V 643.605 h -1.72255 v -8.61275 h -3.4451 v -3.44509 h 6.8902 v 10.33529 h 1.72255 z m 20.67059,0 h 1.72255 v 3.4451 h -3.4451 v -1.72255 h -1.72255 V 643.605 h -1.72255 v -12.05784 h -3.4451 v -3.4451 h 3.4451 v -5.16765 h 3.4451 v 5.16765 h 3.4451 v 3.4451 h -3.4451 v 10.33529 h 1.72255 z m 12.05782,3.4451 v -3.4451 h 8.61274 v -1.72255 h 1.72255 v -5.16765 h -1.72255 v 1.72255 h -1.72255 v 1.72255 h -6.89019 v -1.72255 h -1.72255 v -1.72255 h -1.72255 v -10.33529 h 3.4451 v 8.61274 h 1.72255 v 1.72255 h 3.44509 v -1.72255 h 1.72255 v -1.72255 h 1.72255 v -3.44509 h 1.72255 v -3.4451 h 3.4451 V 643.605 h -1.72255 v 1.72255 h -1.72255 v 1.72255 z m 55.12157,-24.11569 v 3.4451 h -13.78039 v 6.89019 h 10.3353 v 3.4451 h -10.3353 v 6.8902 h 13.78039 v 3.4451 H 499.7421 v -24.11569 z m 5.16766,20.67059 h -1.72255 v -3.4451 h 3.4451 v 1.72255 h 1.72255 v 1.72255 h 6.89019 v -3.4451 h -3.4451 v -1.72255 h -3.44509 v -1.72255 h -3.4451 v -1.72255 h -1.72255 v -3.44509 h 1.72255 v -1.72255 h 1.72255 v -1.72255 h 10.33529 v 1.72255 h 1.72255 v 1.72255 h 1.72255 v 3.44509 h -3.4451 v -1.72255 h -1.72255 v -1.72254 h -6.89019 v 3.44509 h 5.16764 v 1.72255 h 3.4451 v 1.72255 h 1.72255 v 1.72255 h 1.72255 v 3.4451 h -1.72255 v 1.72255 h -1.72255 v 1.72255 h -10.33529 v -1.72255 h -1.72255 z m 32.72843,-1.72255 v -1.72255 h 3.4451 v 3.4451 h -1.72255 v 1.72255 h -1.72255 v 1.72255 h -10.33529 v -1.72255 h -1.72255 V 643.605 h -1.72255 v -12.05784 h 1.72255 v -1.72255 h 1.72255 v -1.72255 h 10.33529 v 1.72255 h 1.72255 v 1.72255 h 1.72255 v 3.44509 h -3.4451 v -1.72255 h -1.72255 v -1.72254 h -6.89019 v 1.72254 h -1.72255 v 8.61275 h 1.72255 v 1.72255 h 6.89019 v -1.72255 z m 12.05782,1.72255 h 6.8902 v -1.72255 h 1.72255 v -3.4451 h -1.72255 v -1.72255 h -6.8902 v 1.72255 h -1.72255 v 3.4451 h 1.72255 z m -1.72255,3.4451 v -1.72255 h -1.72255 V 643.605 h -1.72255 v -6.8902 h 1.72255 v -1.72255 h 1.72255 v -1.72255 h 8.61275 v 1.72255 h 1.72255 v -3.44509 h -1.72255 v -1.72255 h -8.61275 v -3.4451 h 10.3353 v 1.72255 h 1.72254 v 1.72255 h 1.72255 v 17.22549 h -3.44509 v -1.72255 h -1.72255 v 1.72255 z m 31.00589,-15.50294 h -1.72255 v -1.72255 h -5.16765 v 1.72255 h -1.72255 v 5.16764 h 1.72255 v 1.72255 h 5.16765 v -1.72255 h 1.72255 z m -10.33529,8.61274 v 6.8902 h -3.4451 v -20.67059 h 3.4451 v 1.72255 h 1.72254 v -1.72255 h 8.61275 v 1.72255 h 1.72255 v 1.72255 h 1.72255 v 8.61274 h -1.72255 v 1.72255 h -1.72255 v 1.72255 h -8.61275 v -1.72255 z m 20.67059,-6.8902 v 1.72255 h 10.33529 v -1.72255 h -1.72255 v -1.72254 h -6.89019 v 1.72254 z m 13.78039,8.61275 v 1.72255 h -1.72255 v 1.72255 h -1.72255 v 1.72255 h -10.33529 v -1.72255 h -1.72255 V 643.605 h -1.72255 v -12.05784 h 1.72255 v -1.72255 h 1.72255 v -1.72255 h 10.33529 v 1.72255 h 1.72255 v 1.72255 h 1.72255 v 5.16764 h -1.72255 v 1.72255 h -12.05784 v 3.4451 h 1.72255 v 1.72255 h 6.89019 v -1.72255 z m 39.61864,-15.50294 h 1.72255 v 3.4451 h -3.4451 v -1.72255 h -1.72255 v -1.72255 h -6.8902 v 1.72255 h -1.72254 v 13.78039 h 1.72254 v 1.72255 h 6.8902 v -1.72255 h 1.72255 v -5.16765 h -5.16765 v -3.4451 h 8.61275 v 10.3353 h -1.72255 v 1.72255 h -1.72255 v 1.72255 h -10.33529 v -1.72255 h -1.72255 V 643.605 h -1.72255 v -17.22549 h 1.72255 v -1.72255 h 1.72255 v -1.72255 h 10.33529 v 1.72255 h 1.72255 z m 10.3353,17.22549 h 6.89019 v -1.72255 h 1.72255 v -3.4451 h -1.72255 v -1.72255 h -6.89019 v 1.72255 h -1.72255 v 3.4451 h 1.72255 z m -1.72255,3.4451 v -1.72255 h -1.72255 V 643.605 h -1.72255 v -6.8902 h 1.72255 v -1.72255 h 1.72255 v -1.72255 h 8.61274 v 1.72255 h 1.72255 v -3.44509 h -1.72255 v -1.72255 h -8.61274 v -3.4451 h 10.33529 v 1.72255 h 1.72255 v 1.72255 h 1.72255 v 17.22549 h -3.4451 v -1.72255 h -1.72255 v 1.72255 z m 20.67059,-13.7804 v 13.7804 h -3.4451 v -18.94804 h 3.4451 v 1.72255 h 1.72255 v -1.72255 h 8.61275 v 1.72255 h 1.72254 v 1.72255 h 1.72255 v 15.50294 h -3.44509 v -13.7804 h -1.72255 v -1.72254 h -1.72255 v 15.50294 h -3.4451 v -15.50294 h -1.72255 v 1.72254 z m 20.6706,0 v 1.72255 h 10.33529 v -1.72255 h -1.72255 v -1.72254 h -6.8902 v 1.72254 z m 13.78039,8.61275 v 1.72255 h -1.72255 v 1.72255 h -1.72255 v 1.72255 H 709.8931 v -1.72255 h -1.72255 V 643.605 H 706.448 v -12.05784 h 1.72255 v -1.72255 h 1.72255 v -1.72255 h 10.33529 v 1.72255 h 1.72255 v 1.72255 h 1.72255 v 5.16764 h -1.72255 v 1.72255 H 709.8931 v 3.4451 h 1.72254 v 1.72255 h 6.8902 v -1.72255 z"
         id="text84"
         aria-label="A Cybersecurity Escape Game" /></g><g
       id="g56"
       transform="translate(7987.35,3568.4443)"><text
         xml:space="preserve"
         style="font-style:normal;font-variant:normal;font-weight:normal;font-stretch:normal;font-size:35.2777px;font-family:'VCR OSD Mono';-inkscape-font-specification:'VCR OSD Mono, Normal';font-variant-ligatures:normal;font-variant-caps:normal;font-variant-numeric:normal;font-variant-east-asian:normal;text-align:start;writing-mode:lr-tb;direction:ltr;text-anchor:start;opacity:1;fill:#1a1a1a;fill-opacity:1;stroke:none;stroke-width:4.99999;stroke-linecap:round;stroke-linejoin:round;stroke-dasharray:none;stroke-dashoffset:0.907087;stroke-opacity:1;paint-order:stroke fill markers"
         x="176.05434"
         y="762.42047"
         id="text56"><tspan
           id="tspan56"
           style="stroke-width:5"
           x="176.05434"
           y="762.42047">search engine</tspan></text><text
         xml:space="preserve"
         style="font-size:55.4061px;line-height:0.6;font-family:FreeSans;-inkscape-font-specification:'FreeSans, Normal';text-align:center;writing-mode:lr-tb;direction:ltr;text-anchor:middle;fill:#000000;stroke-width:8.90668;stroke-linecap:round;stroke-linejoin:round;stroke-dashoffset:0.907087;paint-order:stroke fill markers"
         x="-639.10211"
         y="3192.8945"
         id="text79"><tspan
           id="tspan79"
           style="stroke-width:8.90665"
           x="-639.10211"
           y="3192.8945">website with what to do</tspan><tspan
           style="stroke-width:8.90665"
           x="-639.10211"
           y="3226.1382"
           id="tspan80" /><tspan
           style="stroke-width:8.90665"
           x="-639.10211"
           y="3259.3818"
           id="tspan81">- change password</tspan><tspan
           style="stroke-width:8.90665"
           x="-639.10211"
           y="3292.6255"
           id="tspan91" /><tspan
           style="stroke-width:8.90665"
           x="-639.10211"
           y="3325.8691"
           id="tspan92">- inform colleagues</tspan></text></g><path
       id="text55"
       style="font-size:133.672px;line-height:0.6;font-family:FreeSans;-inkscape-font-specification:'FreeSans, Normal';text-align:center;writing-mode:lr-tb;direction:ltr;text-anchor:middle;fill:url(#linearGradient5);stroke:#000000;stroke-width:21.4882;stroke-linecap:round;stroke-linejoin:round;stroke-dashoffset:0.907087;paint-order:stroke fill markers"
       d="m 8308.9302,6615.4965 c -1.3118,0 -1.9674,2.0498 -1.9674,6.1489 0,4.0992 0.6556,6.1485 1.9674,6.1485 h 28.653 c 1.3937,0 2.0903,-2.0493 2.0903,-6.1485 0,-4.0991 -0.6966,-6.1489 -2.0903,-6.1489 z m 65.4218,0 c -1.3117,0 -1.9673,2.0498 -1.9673,6.1489 0,4.0992 0.6556,6.1485 1.9673,6.1485 h 28.653 c 1.3937,0 2.0903,-2.0493 2.0903,-6.1485 0,-4.0991 -0.6966,-6.1489 -2.0903,-6.1489 z m 65.4219,0 c -1.3118,0 -1.9679,2.0498 -1.9679,6.1489 0,4.0992 0.6561,6.1485 1.9679,6.1485 h 77.7192 c 1.3937,0 2.0903,-2.0493 2.0903,-6.1485 0,-4.0991 -0.6966,-6.1489 -2.0903,-6.1489 z m 114.4881,0 c -1.3118,0 -1.9679,2.0498 -1.9679,6.1489 0,4.0992 0.6561,6.1485 1.9679,6.1485 h 28.6525 c 1.3937,0 2.0908,-2.0493 2.0908,-6.1485 0,-4.0991 -0.6971,-6.1489 -2.0908,-6.1489 z m 81.7769,0 c -1.3117,0 -1.9673,2.0498 -1.9673,6.1489 0,4.0992 0.6556,6.1485 1.9673,6.1485 h 28.653 c 1.3937,0 2.0903,-2.0493 2.0903,-6.1485 0,-4.0991 -0.6966,-6.1489 -2.0903,-6.1489 z m 65.4218,0 c -1.3117,0 -1.9678,2.0498 -1.9678,6.1489 0,4.0992 0.6561,6.1485 1.9678,6.1485 h 61.3637 c 1.3937,0 2.0903,-2.0493 2.0903,-6.1485 0,-4.0991 -0.6966,-6.1489 -2.0903,-6.1489 z m 114.4881,0 c -1.3117,0 -1.9678,2.0498 -1.9678,6.1489 0,4.0992 0.6561,6.1485 1.9678,6.1485 h 110.43 c 1.3937,0 2.0903,-2.0493 2.0903,-6.1485 0,-4.0991 -0.6966,-6.1489 -2.0903,-6.1489 z m 163.5544,0 c -1.3117,0 -1.9679,2.0498 -1.9679,6.1489 0,4.0992 0.6562,6.1485 1.9679,6.1485 h 61.3637 c 1.3937,0 2.0903,-2.0493 2.0903,-6.1485 0,-4.0991 -0.6966,-6.1489 -2.0903,-6.1489 z m -670.573,16.3556 c -1.3118,0 -1.9674,2.0498 -1.9674,6.1489 0,4.0991 0.6556,6.1485 1.9674,6.1485 h 28.653 c 1.3937,0 2.0903,-2.0494 2.0903,-6.1485 0,-4.0991 -0.6966,-6.1489 -2.0903,-6.1489 z m 65.4218,0 c -1.3117,0 -1.9673,2.0498 -1.9673,6.1489 0,4.0991 0.6556,6.1485 1.9673,6.1485 h 28.653 c 1.3937,0 2.0903,-2.0494 2.0903,-6.1485 0,-4.0991 -0.6966,-6.1489 -2.0903,-6.1489 z m 49.0663,0 c -1.3118,0 -1.9674,2.0498 -1.9674,6.1489 0,4.0991 0.6556,6.1485 1.9674,6.1485 h 28.653 c 1.3937,0 2.0903,-2.0494 2.0903,-6.1485 0,-4.0991 -0.6966,-6.1489 -2.0903,-6.1489 z m 81.7774,0 c -1.3117,0 -1.9678,2.0498 -1.9678,6.1489 0,4.0991 0.6561,6.1485 1.9678,6.1485 h 28.6525 c 1.3937,0 2.0908,-2.0494 2.0908,-6.1485 0,-4.0991 -0.6971,-6.1489 -2.0908,-6.1489 z m 49.0663,0 c -1.3118,0 -1.9679,2.0498 -1.9679,6.1489 0,4.0991 0.6561,6.1485 1.9679,6.1485 h 28.6525 c 1.3937,0 2.0908,-2.0494 2.0908,-6.1485 0,-4.0991 -0.6971,-6.1489 -2.0908,-6.1489 z m 81.7769,0 c -1.3117,0 -1.9673,2.0498 -1.9673,6.1489 0,4.0991 0.6556,6.1485 1.9673,6.1485 h 28.653 c 1.3937,0 2.0903,-2.0494 2.0903,-6.1485 0,-4.0991 -0.6966,-6.1489 -2.0903,-6.1489 z m 49.0662,0 c -1.3117,0 -1.9673,2.0498 -1.9673,6.1489 0,4.0991 0.6556,6.1485 1.9673,6.1485 h 28.6531 c 1.3937,0 2.0903,-2.0494 2.0903,-6.1485 0,-4.0991 -0.6966,-6.1489 -2.0903,-6.1489 z m 65.4219,0 c -1.3117,0 -1.9673,2.0498 -1.9673,6.1489 0,4.0991 0.6556,6.1485 1.9673,6.1485 h 28.653 c 1.3937,0 2.0903,-2.0494 2.0903,-6.1485 0,-4.0991 -0.6966,-6.1489 -2.0903,-6.1489 z m 65.4218,0 c -1.3117,0 -1.9678,2.0498 -1.9678,6.1489 0,4.0991 0.6561,6.1485 1.9678,6.1485 h 28.6525 c 1.3937,0 2.0909,-2.0494 2.0909,-6.1485 0,-4.0991 -0.6972,-6.1489 -2.0909,-6.1489 z m 147.1988,0 c -1.3117,0 -1.9673,2.0498 -1.9673,6.1489 0,4.0991 0.6556,6.1485 1.9673,6.1485 h 28.653 c 1.3937,0 2.0903,-2.0494 2.0903,-6.1485 0,-4.0991 -0.6966,-6.1489 -2.0903,-6.1489 z m 65.4218,0 c -1.3117,0 -1.9673,2.0498 -1.9673,6.1489 0,4.0991 0.6556,6.1485 1.9673,6.1485 h 28.6531 c 1.3937,0 2.0903,-2.0494 2.0903,-6.1485 0,-4.0991 -0.6966,-6.1489 -2.0903,-6.1489 z m -719.6392,16.3555 c -1.3118,0 -1.9674,2.0494 -1.9674,6.1485 0,4.0991 0.6556,6.149 1.9674,6.149 h 28.653 c 1.3937,0 2.0903,-2.0499 2.0903,-6.149 0,-4.0991 -0.6966,-6.1485 -2.0903,-6.1485 z m 65.4218,0 c -1.3117,0 -1.9673,2.0494 -1.9673,6.1485 0,4.0991 0.6556,6.149 1.9673,6.149 h 28.653 c 1.3937,0 2.0903,-2.0499 2.0903,-6.149 0,-4.0991 -0.6966,-6.1485 -2.0903,-6.1485 z m 49.0663,0 c -1.3118,0 -1.9674,2.0494 -1.9674,6.1485 0,4.0991 0.6556,6.149 1.9674,6.149 h 28.653 c 1.3937,0 2.0903,-2.0499 2.0903,-6.149 0,-4.0991 -0.6966,-6.1485 -2.0903,-6.1485 z m 81.7774,0 c -1.3117,0 -1.9678,2.0494 -1.9678,6.1485 0,4.0991 0.6561,6.149 1.9678,6.149 h 28.6525 c 1.3937,0 2.0908,-2.0499 2.0908,-6.149 0,-4.0991 -0.6971,-6.1485 -2.0908,-6.1485 z m 49.0663,0 c -1.3118,0 -1.9679,2.0494 -1.9679,6.1485 0,4.0991 0.6561,6.149 1.9679,6.149 h 28.6525 c 1.3937,0 2.0908,-2.0499 2.0908,-6.149 0,-4.0991 -0.6971,-6.1485 -2.0908,-6.1485 z m 81.7769,0 c -1.3117,0 -1.9673,2.0494 -1.9673,6.1485 0,4.0991 0.6556,6.149 1.9673,6.149 h 28.653 c 1.3937,0 2.0903,-2.0499 2.0903,-6.149 0,-4.0991 -0.6966,-6.1485 -2.0903,-6.1485 z m 49.0662,0 c -1.3117,0 -1.9673,2.0494 -1.9673,6.1485 0,4.0991 0.6556,6.149 1.9673,6.149 h 28.6531 c 1.3937,0 2.0903,-2.0499 2.0903,-6.149 0,-4.0991 -0.6966,-6.1485 -2.0903,-6.1485 z m 130.8437,0 c -1.3117,0 -1.9678,2.0494 -1.9678,6.1485 0,4.0991 0.6561,6.149 1.9678,6.149 h 28.6525 c 1.3937,0 2.0909,-2.0499 2.0909,-6.149 0,-4.0991 -0.6972,-6.1485 -2.0909,-6.1485 z m 130.8432,0 c -1.3117,0 -1.9673,2.0494 -1.9673,6.1485 0,4.0991 0.6556,6.149 1.9673,6.149 h 28.653 c 1.3937,0 2.0903,-2.0499 2.0903,-6.149 0,-4.0991 -0.6966,-6.1485 -2.0903,-6.1485 z m -621.5063,16.3556 c -1.3117,0 -1.9678,2.0494 -1.9678,6.1485 0,4.0991 0.6561,6.1485 1.9678,6.1485 h 61.3637 c 1.3937,0 2.0904,-2.0494 2.0904,-6.1485 0,-4.0991 -0.6967,-6.1485 -2.0904,-6.1485 z m 98.1326,0 c -1.3118,0 -1.9674,2.0494 -1.9674,6.1485 0,4.0991 0.6556,6.1485 1.9674,6.1485 h 28.653 c 1.3937,0 2.0903,-2.0494 2.0903,-6.1485 0,-4.0991 -0.6966,-6.1485 -2.0903,-6.1485 z m 81.7774,0 c -1.3117,0 -1.9678,2.0494 -1.9678,6.1485 0,4.0991 0.6561,6.1485 1.9678,6.1485 h 28.6525 c 1.3937,0 2.0908,-2.0494 2.0908,-6.1485 0,-4.0991 -0.6971,-6.1485 -2.0908,-6.1485 z m 49.0663,0 c -1.3118,0 -1.9679,2.0494 -1.9679,6.1485 0,4.0991 0.6561,6.1485 1.9679,6.1485 h 28.6525 c 1.3937,0 2.0908,-2.0494 2.0908,-6.1485 0,-4.0991 -0.6971,-6.1485 -2.0908,-6.1485 z m 81.7769,0 c -1.3117,0 -1.9673,2.0494 -1.9673,6.1485 0,4.0991 0.6556,6.1485 1.9673,6.1485 h 28.653 c 1.3937,0 2.0903,-2.0494 2.0903,-6.1485 0,-4.0991 -0.6966,-6.1485 -2.0903,-6.1485 z m 65.4218,0 c -1.3117,0 -1.9678,2.0494 -1.9678,6.1485 0,4.0991 0.6561,6.1485 1.9678,6.1485 h 77.7193 c 1.3937,0 2.0903,-2.0494 2.0903,-6.1485 0,-4.0991 -0.6966,-6.1485 -2.0903,-6.1485 z m 114.4881,0 c -1.3117,0 -1.9678,2.0494 -1.9678,6.1485 0,4.0991 0.6561,6.1485 1.9678,6.1485 h 94.0744 c 1.3937,0 2.0908,-2.0494 2.0908,-6.1485 0,-4.0991 -0.6971,-6.1485 -2.0908,-6.1485 z m 130.8432,0 c -1.3117,0 -1.9673,2.0494 -1.9673,6.1485 0,4.0991 0.6556,6.1485 1.9673,6.1485 h 28.653 c 1.3937,0 2.0903,-2.0494 2.0903,-6.1485 0,-4.0991 -0.6966,-6.1485 -2.0903,-6.1485 z m -605.1507,16.3551 c -1.3117,0 -1.9678,2.0499 -1.9678,6.149 0,4.0991 0.6561,6.1484 1.9678,6.1484 h 28.6526 c 1.3937,0 2.0908,-2.0493 2.0908,-6.1484 0,-4.0991 -0.6971,-6.149 -2.0908,-6.149 z m 81.777,0 c -1.3118,0 -1.9674,2.0499 -1.9674,6.149 0,4.0991 0.6556,6.1484 1.9674,6.1484 h 28.653 c 1.3937,0 2.0903,-2.0493 2.0903,-6.1484 0,-4.0991 -0.6966,-6.149 -2.0903,-6.149 z m 81.7774,0 c -1.3117,0 -1.9678,2.0499 -1.9678,6.149 0,4.0991 0.6561,6.1484 1.9678,6.1484 h 28.6525 c 1.3937,0 2.0908,-2.0493 2.0908,-6.1484 0,-4.0991 -0.6971,-6.149 -2.0908,-6.149 z m 49.0663,0 c -1.3118,0 -1.9679,2.0499 -1.9679,6.149 0,4.0991 0.6561,6.1484 1.9679,6.1484 h 28.6525 c 1.3937,0 2.0908,-2.0493 2.0908,-6.1484 0,-4.0991 -0.6971,-6.149 -2.0908,-6.149 z m 81.7769,0 c -1.3117,0 -1.9673,2.0499 -1.9673,6.149 0,4.0991 0.6556,6.1484 1.9673,6.1484 h 28.653 c 1.3937,0 2.0903,-2.0493 2.0903,-6.1484 0,-4.0991 -0.6966,-6.149 -2.0903,-6.149 z m 130.8437,0 c -1.3117,0 -1.9679,2.0499 -1.9679,6.149 0,4.0991 0.6562,6.1484 1.9679,6.1484 h 28.6525 c 1.3937,0 2.0908,-2.0493 2.0908,-6.1484 0,-4.0991 -0.6971,-6.149 -2.0908,-6.149 z m 49.0662,0 c -1.3117,0 -1.9678,2.0499 -1.9678,6.149 0,4.0991 0.6561,6.1484 1.9678,6.1484 h 28.6525 c 1.3937,0 2.0909,-2.0493 2.0909,-6.1484 0,-4.0991 -0.6972,-6.149 -2.0909,-6.149 z m 130.8432,0 c -1.3117,0 -1.9673,2.0499 -1.9673,6.149 0,4.0991 0.6556,6.1484 1.9673,6.1484 h 28.653 c 1.3937,0 2.0903,-2.0493 2.0903,-6.1484 0,-4.0991 -0.6966,-6.149 -2.0903,-6.149 z m -605.1507,16.3556 c -1.3117,0 -1.9678,2.0499 -1.9678,6.149 0,4.0991 0.6561,6.1484 1.9678,6.1484 h 28.6526 c 1.3937,0 2.0908,-2.0493 2.0908,-6.1484 0,-4.0991 -0.6971,-6.149 -2.0908,-6.149 z m 81.777,0 c -1.3118,0 -1.9674,2.0499 -1.9674,6.149 0,4.0991 0.6556,6.1484 1.9674,6.1484 h 28.653 c 1.3937,0 2.0903,-2.0493 2.0903,-6.1484 0,-4.0991 -0.6966,-6.149 -2.0903,-6.149 z m 81.7774,0 c -1.3117,0 -1.9678,2.0499 -1.9678,6.149 0,4.0991 0.6561,6.1484 1.9678,6.1484 h 28.6525 c 1.3937,0 2.0908,-2.0493 2.0908,-6.1484 0,-4.0991 -0.6971,-6.149 -2.0908,-6.149 z m 49.0663,0 c -1.3118,0 -1.9679,2.0499 -1.9679,6.149 0,4.0991 0.6561,6.1484 1.9679,6.1484 h 28.6525 c 1.3937,0 2.0908,-2.0493 2.0908,-6.1484 0,-4.0991 -0.6971,-6.149 -2.0908,-6.149 z m 81.7769,0 c -1.3117,0 -1.9673,2.0499 -1.9673,6.149 0,4.0991 0.6556,6.1484 1.9673,6.1484 h 28.653 c 1.3937,0 2.0903,-2.0493 2.0903,-6.1484 0,-4.0991 -0.6966,-6.149 -2.0903,-6.149 z m 49.0662,0 c -1.3117,0 -1.9673,2.0499 -1.9673,6.149 0,4.0991 0.6556,6.1484 1.9673,6.1484 h 28.6531 c 1.3937,0 2.0903,-2.0493 2.0903,-6.1484 0,-4.0991 -0.6966,-6.149 -2.0903,-6.149 z m 81.7775,0 c -1.3117,0 -1.9679,2.0499 -1.9679,6.149 0,4.0991 0.6562,6.1484 1.9679,6.1484 h 28.6525 c 1.3937,0 2.0908,-2.0493 2.0908,-6.1484 0,-4.0991 -0.6971,-6.149 -2.0908,-6.149 z m 49.0662,0 c -1.3117,0 -1.9678,2.0499 -1.9678,6.149 0,4.0991 0.6561,6.1484 1.9678,6.1484 h 28.6525 c 1.3937,0 2.0909,-2.0493 2.0909,-6.1484 0,-4.0991 -0.6972,-6.149 -2.0909,-6.149 z m 147.1988,0 c -1.3117,0 -1.9673,2.0499 -1.9673,6.149 0,4.0991 0.6556,6.1484 1.9673,6.1484 h 28.653 c 1.3937,0 2.0903,-2.0493 2.0903,-6.1484 0,-4.0991 -0.6966,-6.149 -2.0903,-6.149 z m 65.4218,0 c -1.3117,0 -1.9673,2.0499 -1.9673,6.149 0,4.0991 0.6556,6.1484 1.9673,6.1484 h 28.6531 c 1.3937,0 2.0903,-2.0493 2.0903,-6.1484 0,-4.0991 -0.6966,-6.149 -2.0903,-6.149 z m -686.9281,16.3556 c -1.3117,0 -1.9678,2.0493 -1.9678,6.1485 0,4.0991 0.6561,6.1489 1.9678,6.1489 h 28.6526 c 1.3937,0 2.0908,-2.0498 2.0908,-6.1489 0,-4.0992 -0.6971,-6.1485 -2.0908,-6.1485 z m 98.1326,0 c -1.3118,0 -1.9679,2.0493 -1.9679,6.1485 0,4.0991 0.6561,6.1489 1.9679,6.1489 h 77.7192 c 1.3937,0 2.0903,-2.0498 2.0903,-6.1489 0,-4.0992 -0.6966,-6.1485 -2.0903,-6.1485 z m 130.8431,0 c -1.3117,0 -1.9673,2.0493 -1.9673,6.1485 0,4.0991 0.6556,6.1489 1.9673,6.1489 h 77.7193 c 1.3937,0 2.0908,-2.0498 2.0908,-6.1489 0,-4.0992 -0.6971,-6.1485 -2.0908,-6.1485 z m 130.8437,0 c -1.3117,0 -1.9678,2.0493 -1.9678,6.1485 0,4.0991 0.6561,6.1489 1.9678,6.1489 h 77.7193 c 1.3937,0 2.0903,-2.0498 2.0903,-6.1489 0,-4.0992 -0.6966,-6.1485 -2.0903,-6.1485 z m 114.4881,0 c -1.3117,0 -1.9678,2.0493 -1.9678,6.1485 0,4.0991 0.6561,6.1489 1.9678,6.1489 h 110.43 c 1.3937,0 2.0903,-2.0498 2.0903,-6.1489 0,-4.0992 -0.6966,-6.1485 -2.0903,-6.1485 z m 163.5544,0 c -1.3117,0 -1.9679,2.0493 -1.9679,6.1485 0,4.0991 0.6562,6.1489 1.9679,6.1489 h 61.3637 c 1.3937,0 2.0903,-2.0498 2.0903,-6.1489 0,-4.0992 -0.6966,-6.1485 -2.0903,-6.1485 z m -664.4768,38.0116 c -2.2466,0 -4.1721,0.8024 -5.7769,2.4071 -1.5245,1.5245 -2.2867,3.4099 -2.2867,5.6565 v 95.9249 c 0,2.2467 0.7622,4.1722 2.2867,5.7769 1.6048,1.5245 3.5303,2.2867 5.7769,2.2867 h 96.0448 c 2.2467,0 4.1325,-0.7622 5.657,-2.2867 1.5246,-1.6047 2.2867,-3.5302 2.2867,-5.7769 0,-2.1664 -0.8023,-4.0121 -2.4071,-5.5366 -1.5245,-1.6048 -3.3702,-2.4071 -5.5366,-2.4071 h -64.0297 c -2.2466,0 -4.1726,-0.7622 -5.7774,-2.2867 -1.5245,-1.6047 -2.2867,-3.5307 -2.2867,-5.7774 v -15.8869 c 0,-2.2466 0.7622,-4.1325 2.2867,-5.657 1.6048,-1.6048 3.5308,-2.4071 5.7774,-2.4071 h 48.0224 c 2.2467,0 4.132,-0.7622 5.6565,-2.2867 1.5245,-1.6047 2.2872,-3.5302 2.2872,-5.7769 0,-2.1664 -0.8023,-4.0121 -2.4071,-5.5366 -1.5245,-1.6048 -3.3702,-2.4071 -5.5366,-2.4071 h -48.0224 c -2.2466,0 -4.1726,-0.7621 -5.7774,-2.2867 -1.5245,-1.6047 -2.2867,-3.5307 -2.2867,-5.7774 v -15.8869 c 0,-2.2466 0.7622,-4.1325 2.2867,-5.657 1.6048,-1.6048 3.5308,-2.4071 5.7774,-2.4071 h 64.0297 c 2.1664,0 4.0121,-0.7621 5.5366,-2.2867 1.6048,-1.6047 2.4071,-3.4906 2.4071,-5.657 0,-2.2466 -0.7621,-4.132 -2.2867,-5.6565 -1.5245,-1.6047 -3.4103,-2.4071 -5.657,-2.4071 z m 144.0672,0 c -5.6167,0 -11.0326,2.6079 -16.2481,7.8233 -5.2155,5.1352 -7.8233,10.5111 -7.8233,16.1277 v 16.0073 c 0,8.0238 4.6137,15.0048 13.841,20.9424 3.2095,2.0862 6.6197,3.129 10.2304,3.129 h 48.0224 c 2.2467,0 4.1325,0.8023 5.657,2.4071 1.5245,1.5245 2.2867,3.4104 2.2867,5.657 v 15.8869 c 0,2.2467 -0.7622,4.1727 -2.2867,5.7774 -1.5245,1.5245 -3.4103,2.2867 -5.657,2.2867 h -32.0151 c -3.37,0 -5.6565,-1.3642 -6.8601,-4.0922 -0.8023,-2.6479 -1.6047,-5.2557 -2.407,-7.8233 -1.2036,-2.7281 -3.4504,-4.0918 -6.7402,-4.0918 h -16.0073 c -2.2467,0 -4.1727,0.7622 -5.7774,2.2867 -1.5245,1.5245 -2.2867,3.4098 -2.2867,5.6565 0,5.6969 2.5677,11.153 7.7029,16.3685 5.2155,5.1352 10.6716,7.7029 16.3685,7.7029 h 64.0302 c 5.6167,0 10.9925,-2.6078 16.1277,-7.8233 5.2155,-5.2155 7.8233,-10.6314 7.8233,-16.2481 v -15.8869 c 0,-8.0238 -4.6137,-15.0048 -13.841,-20.9424 -3.2095,-2.0862 -6.5795,-3.129 -10.11,-3.129 h -48.0229 c -2.2467,0 -4.1722,-0.7621 -5.7769,-2.2867 -1.5245,-1.6047 -2.2867,-3.5307 -2.2867,-5.7774 v -16.0073 c 0,-2.2466 0.7622,-4.1325 2.2867,-5.657 1.6047,-1.5245 3.5302,-2.2867 5.7769,-2.2867 h 16.0078 c 3.2898,0 5.5361,1.3642 6.7396,4.0923 0.8024,2.5676 1.6053,5.1754 2.4076,7.8233 1.2036,2.7281 3.4901,4.0922 6.8601,4.0922 h 16.0078 c 2.2467,0 4.132,-0.7627 5.6565,-2.2872 1.5245,-1.6047 2.2867,-3.5302 2.2867,-5.7769 0,-5.6166 -2.6078,-10.9925 -7.8233,-16.1277 -5.1352,-5.2154 -10.511,-7.8233 -16.1277,-7.8233 z m 144.0672,0 c -5.376,0 -9.9494,1.8853 -13.7206,5.6565 l -20.7016,20.7016 c -3.7712,3.7712 -5.6565,8.3045 -5.6565,13.6002 v 32.1355 c 0,5.2957 1.8853,9.829 5.6565,13.6002 l 20.7016,20.7016 c 3.7712,3.7712 8.3446,5.6565 13.7206,5.6565 h 48.0224 c 5.6166,0 10.9924,-2.6078 16.1277,-7.8233 5.2154,-5.2155 7.8233,-10.6314 7.8233,-16.2481 0,-2.1664 -0.8024,-4.0116 -2.4071,-5.5361 -1.5245,-1.6048 -3.3702,-2.4071 -5.5366,-2.4071 h -16.0073 c -3.37,0 -5.6565,1.3637 -6.8601,4.0918 -0.8024,2.6478 -1.6052,5.2556 -2.4076,7.8233 -1.2036,2.728 -3.4499,4.0922 -6.7396,4.0922 h -16.0078 c -5.6167,0 -11.0327,-2.5677 -16.2481,-7.7029 -5.2155,-5.2154 -7.8233,-10.6314 -7.8233,-16.2481 v -32.1355 c 0,-5.6166 2.6078,-10.9925 7.8233,-16.1277 5.2154,-5.2155 10.6314,-7.8233 16.2481,-7.8233 h 16.0078 c 3.2897,0 5.536,1.3642 6.7396,4.0923 0.8024,2.5676 1.6052,5.1754 2.4076,7.8233 1.2036,2.7281 3.4901,4.0922 6.8601,4.0922 h 16.0073 c 2.2466,0 4.1325,-0.7627 5.657,-2.2872 1.5245,-1.6047 2.2867,-3.5302 2.2867,-5.7769 0,-5.6166 -2.6079,-10.9925 -7.8233,-16.1277 -5.1353,-5.2154 -10.5111,-7.8233 -16.1277,-7.8233 z m 128.0599,0 c -5.376,0 -9.95,1.8853 -13.7212,5.6565 l -20.701,20.7016 c -3.7712,3.7712 -5.657,8.3045 -5.657,13.6002 v 64.0302 c 0,2.2467 0.7621,4.1722 2.2866,5.7769 1.6048,1.5245 3.5308,2.2867 5.7775,2.2867 h 16.0073 c 5.3759,0 8.0641,-3.9313 8.0641,-11.7946 0,-0.9629 -0.04,-2.3672 -0.1204,-4.2127 -0.08,-1.8455 -0.1205,-3.2498 -0.1205,-4.2127 0,-7.8633 2.7284,-11.7946 8.1846,-11.7946 h 32.0145 c 5.376,0 8.0642,3.9313 8.0642,11.7946 0,0.9629 -0.04,2.3672 -0.1205,4.2127 -0.08,1.8455 -0.1204,3.2498 -0.1204,4.2127 0,7.8633 2.7284,11.7946 8.1846,11.7946 h 16.0072 c 2.2467,0 4.1325,-0.7622 5.6571,-2.2867 1.5245,-1.6047 2.2866,-3.5302 2.2866,-5.7769 v -64.0302 c 0,-5.2957 -1.8858,-9.829 -5.657,-13.6002 l -20.701,-20.7016 c -3.7712,-3.7712 -8.305,-5.6565 -13.6008,-5.6565 z m 96.0442,0 c -2.2466,0 -4.1721,0.7622 -5.7769,2.2867 -1.5245,1.5245 -2.2867,3.4104 -2.2867,5.657 v 96.0448 c 0,2.2467 0.7622,4.1722 2.2867,5.7769 1.6048,1.5245 3.5303,2.2867 5.7769,2.2867 h 16.0078 c 5.376,0 8.0636,-3.9313 8.0636,-11.7946 0,-0.9629 -0.04,-2.3672 -0.1199,-4.2127 -0.08,-1.8455 -0.1204,-3.2498 -0.1204,-4.2127 0,-7.8633 2.7278,-11.7946 8.184,-11.7946 h 48.0224 c 5.6167,0 10.9925,-2.6078 16.1277,-7.8233 5.2155,-5.2154 7.8233,-10.6314 7.8233,-16.2481 v -32.0151 c 0,-5.6166 -2.6078,-10.9925 -7.8233,-16.1277 -5.1352,-5.2154 -10.511,-7.8233 -16.1277,-7.8233 z m 128.0599,0 c -2.2467,0 -4.1721,0.8024 -5.7769,2.4071 -1.5245,1.5245 -2.2872,3.4099 -2.2872,5.6565 v 95.9249 c 0,2.2467 0.7627,4.1722 2.2872,5.7769 1.6048,1.5245 3.5302,2.2867 5.7769,2.2867 h 96.0448 c 2.2467,0 4.1325,-0.7622 5.657,-2.2867 1.5245,-1.6047 2.2867,-3.5302 2.2867,-5.7769 0,-2.1664 -0.8023,-4.0121 -2.4071,-5.5366 -1.5245,-1.6048 -3.3702,-2.4071 -5.5366,-2.4071 h -64.0297 c -2.2467,0 -4.1727,-0.7622 -5.7774,-2.2867 -1.5245,-1.6047 -2.2867,-3.5307 -2.2867,-5.7774 v -15.8869 c 0,-2.2466 0.7622,-4.1325 2.2867,-5.657 1.6047,-1.6048 3.5307,-2.4071 5.7774,-2.4071 h 48.0224 c 2.2467,0 4.132,-0.7622 5.6565,-2.2867 1.5245,-1.6047 2.2872,-3.5302 2.2872,-5.7769 0,-2.1664 -0.8028,-4.0121 -2.4076,-5.5366 -1.5245,-1.6048 -3.3697,-2.4071 -5.5361,-2.4071 h -48.0224 c -2.2467,0 -4.1727,-0.7621 -5.7774,-2.2867 -1.5245,-1.6047 -2.2867,-3.5307 -2.2867,-5.7774 v -15.8869 c 0,-2.2466 0.7622,-4.1325 2.2867,-5.657 1.6047,-1.6048 3.5307,-2.4071 5.7774,-2.4071 h 64.0297 c 2.1664,0 4.0121,-0.7621 5.5366,-2.2867 1.6048,-1.6047 2.4071,-3.4906 2.4071,-5.657 0,-2.2466 -0.7622,-4.132 -2.2867,-5.6565 -1.5245,-1.6047 -3.4103,-2.4071 -5.657,-2.4071 z m -208.0968,16.0073 c 5.6166,0 10.9924,2.6078 16.1277,7.8233 5.2154,5.1352 7.8232,10.5111 7.8232,16.1277 v 16.0078 c 0,2.2467 -0.7621,4.1722 -2.2866,5.7769 -1.5246,1.5245 -3.4104,2.2867 -5.6571,2.2867 h -32.0145 c -2.2467,0 -4.1727,-0.7622 -5.7775,-2.2867 -1.5245,-1.6047 -2.2866,-3.5302 -2.2866,-5.7769 v -16.0078 c 0,-5.6166 2.6078,-10.9925 7.8232,-16.1277 5.2155,-5.2155 10.6315,-7.8233 16.2482,-7.8233 z m 112.052,0 h 32.0151 c 2.1665,0 4.0121,0.8023 5.5366,2.4071 1.6048,1.5245 2.4071,3.3702 2.4071,5.5366 v 32.0151 c 0,2.2467 -0.7626,4.1722 -2.2872,5.7769 -1.5245,1.5245 -3.4098,2.2867 -5.6565,2.2867 H 8859.28 c -2.2466,0 -4.1721,-0.7622 -5.7769,-2.2867 -1.5245,-1.6047 -2.2867,-3.5302 -2.2867,-5.7769 v -32.0151 c 0,-2.2466 0.7622,-4.1325 2.2867,-5.657 1.6048,-1.5245 3.5303,-2.2867 5.7769,-2.2867 z" /><path
       id="path66"
       style="font-size:133.672px;line-height:0.6;font-family:FreeSans;-inkscape-font-specification:'FreeSans, Normal';text-align:center;writing-mode:lr-tb;direction:ltr;text-anchor:middle;mix-blend-mode:normal;fill:url(#linearGradient58);stroke:#000000;stroke-width:21.4882;stroke-linecap:round;stroke-linejoin:round;stroke-dashoffset:0.907087;paint-order:stroke fill markers"
       d="m 8308.9302,6615.4965 c -1.3118,0 -1.9674,2.0498 -1.9674,6.1489 0,4.0992 0.6556,6.1485 1.9674,6.1485 h 28.653 c 1.3937,0 2.0903,-2.0493 2.0903,-6.1485 0,-4.0991 -0.6966,-6.1489 -2.0903,-6.1489 z m 65.4218,0 c -1.3117,0 -1.9673,2.0498 -1.9673,6.1489 0,4.0992 0.6556,6.1485 1.9673,6.1485 h 28.653 c 1.3937,0 2.0903,-2.0493 2.0903,-6.1485 0,-4.0991 -0.6966,-6.1489 -2.0903,-6.1489 z m 65.4219,0 c -1.3118,0 -1.9679,2.0498 -1.9679,6.1489 0,4.0992 0.6561,6.1485 1.9679,6.1485 h 77.7192 c 1.3937,0 2.0903,-2.0493 2.0903,-6.1485 0,-4.0991 -0.6966,-6.1489 -2.0903,-6.1489 z m 114.4881,0 c -1.3118,0 -1.9679,2.0498 -1.9679,6.1489 0,4.0992 0.6561,6.1485 1.9679,6.1485 h 28.6525 c 1.3937,0 2.0908,-2.0493 2.0908,-6.1485 0,-4.0991 -0.6971,-6.1489 -2.0908,-6.1489 z m 81.7769,0 c -1.3117,0 -1.9673,2.0498 -1.9673,6.1489 0,4.0992 0.6556,6.1485 1.9673,6.1485 h 28.653 c 1.3937,0 2.0903,-2.0493 2.0903,-6.1485 0,-4.0991 -0.6966,-6.1489 -2.0903,-6.1489 z m 65.4218,0 c -1.3117,0 -1.9678,2.0498 -1.9678,6.1489 0,4.0992 0.6561,6.1485 1.9678,6.1485 h 61.3637 c 1.3937,0 2.0903,-2.0493 2.0903,-6.1485 0,-4.0991 -0.6966,-6.1489 -2.0903,-6.1489 z m 114.4881,0 c -1.3117,0 -1.9678,2.0498 -1.9678,6.1489 0,4.0992 0.6561,6.1485 1.9678,6.1485 h 110.43 c 1.3937,0 2.0903,-2.0493 2.0903,-6.1485 0,-4.0991 -0.6966,-6.1489 -2.0903,-6.1489 z m 163.5544,0 c -1.3117,0 -1.9679,2.0498 -1.9679,6.1489 0,4.0992 0.6562,6.1485 1.9679,6.1485 h 61.3637 c 1.3937,0 2.0903,-2.0493 2.0903,-6.1485 0,-4.0991 -0.6966,-6.1489 -2.0903,-6.1489 z m -670.573,16.3556 c -1.3118,0 -1.9674,2.0498 -1.9674,6.1489 0,4.0991 0.6556,6.1485 1.9674,6.1485 h 28.653 c 1.3937,0 2.0903,-2.0494 2.0903,-6.1485 0,-4.0991 -0.6966,-6.1489 -2.0903,-6.1489 z m 65.4218,0 c -1.3117,0 -1.9673,2.0498 -1.9673,6.1489 0,4.0991 0.6556,6.1485 1.9673,6.1485 h 28.653 c 1.3937,0 2.0903,-2.0494 2.0903,-6.1485 0,-4.0991 -0.6966,-6.1489 -2.0903,-6.1489 z m 49.0663,0 c -1.3118,0 -1.9674,2.0498 -1.9674,6.1489 0,4.0991 0.6556,6.1485 1.9674,6.1485 h 28.653 c 1.3937,0 2.0903,-2.0494 2.0903,-6.1485 0,-4.0991 -0.6966,-6.1489 -2.0903,-6.1489 z m 81.7774,0 c -1.3117,0 -1.9678,2.0498 -1.9678,6.1489 0,4.0991 0.6561,6.1485 1.9678,6.1485 h 28.6525 c 1.3937,0 2.0908,-2.0494 2.0908,-6.1485 0,-4.0991 -0.6971,-6.1489 -2.0908,-6.1489 z m 49.0663,0 c -1.3118,0 -1.9679,2.0498 -1.9679,6.1489 0,4.0991 0.6561,6.1485 1.9679,6.1485 h 28.6525 c 1.3937,0 2.0908,-2.0494 2.0908,-6.1485 0,-4.0991 -0.6971,-6.1489 -2.0908,-6.1489 z m 81.7769,0 c -1.3117,0 -1.9673,2.0498 -1.9673,6.1489 0,4.0991 0.6556,6.1485 1.9673,6.1485 h 28.653 c 1.3937,0 2.0903,-2.0494 2.0903,-6.1485 0,-4.0991 -0.6966,-6.1489 -2.0903,-6.1489 z m 49.0662,0 c -1.3117,0 -1.9673,2.0498 -1.9673,6.1489 0,4.0991 0.6556,6.1485 1.9673,6.1485 h 28.6531 c 1.3937,0 2.0903,-2.0494 2.0903,-6.1485 0,-4.0991 -0.6966,-6.1489 -2.0903,-6.1489 z m 65.4219,0 c -1.3117,0 -1.9673,2.0498 -1.9673,6.1489 0,4.0991 0.6556,6.1485 1.9673,6.1485 h 28.653 c 1.3937,0 2.0903,-2.0494 2.0903,-6.1485 0,-4.0991 -0.6966,-6.1489 -2.0903,-6.1489 z m 65.4218,0 c -1.3117,0 -1.9678,2.0498 -1.9678,6.1489 0,4.0991 0.6561,6.1485 1.9678,6.1485 h 28.6525 c 1.3937,0 2.0909,-2.0494 2.0909,-6.1485 0,-4.0991 -0.6972,-6.1489 -2.0909,-6.1489 z m 147.1988,0 c -1.3117,0 -1.9673,2.0498 -1.9673,6.1489 0,4.0991 0.6556,6.1485 1.9673,6.1485 h 28.653 c 1.3937,0 2.0903,-2.0494 2.0903,-6.1485 0,-4.0991 -0.6966,-6.1489 -2.0903,-6.1489 z m 65.4218,0 c -1.3117,0 -1.9673,2.0498 -1.9673,6.1489 0,4.0991 0.6556,6.1485 1.9673,6.1485 h 28.6531 c 1.3937,0 2.0903,-2.0494 2.0903,-6.1485 0,-4.0991 -0.6966,-6.1489 -2.0903,-6.1489 z m -719.6392,16.3555 c -1.3118,0 -1.9674,2.0494 -1.9674,6.1485 0,4.0991 0.6556,6.149 1.9674,6.149 h 28.653 c 1.3937,0 2.0903,-2.0499 2.0903,-6.149 0,-4.0991 -0.6966,-6.1485 -2.0903,-6.1485 z m 65.4218,0 c -1.3117,0 -1.9673,2.0494 -1.9673,6.1485 0,4.0991 0.6556,6.149 1.9673,6.149 h 28.653 c 1.3937,0 2.0903,-2.0499 2.0903,-6.149 0,-4.0991 -0.6966,-6.1485 -2.0903,-6.1485 z m 49.0663,0 c -1.3118,0 -1.9674,2.0494 -1.9674,6.1485 0,4.0991 0.6556,6.149 1.9674,6.149 h 28.653 c 1.3937,0 2.0903,-2.0499 2.0903,-6.149 0,-4.0991 -0.6966,-6.1485 -2.0903,-6.1485 z m 81.7774,0 c -1.3117,0 -1.9678,2.0494 -1.9678,6.1485 0,4.0991 0.6561,6.149 1.9678,6.149 h 28.6525 c 1.3937,0 2.0908,-2.0499 2.0908,-6.149 0,-4.0991 -0.6971,-6.1485 -2.0908,-6.1485 z m 49.0663,0 c -1.3118,0 -1.9679,2.0494 -1.9679,6.1485 0,4.0991 0.6561,6.149 1.9679,6.149 h 28.6525 c 1.3937,0 2.0908,-2.0499 2.0908,-6.149 0,-4.0991 -0.6971,-6.1485 -2.0908,-6.1485 z m 81.7769,0 c -1.3117,0 -1.9673,2.0494 -1.9673,6.1485 0,4.0991 0.6556,6.149 1.9673,6.149 h 28.653 c 1.3937,0 2.0903,-2.0499 2.0903,-6.149 0,-4.0991 -0.6966,-6.1485 -2.0903,-6.1485 z m 49.0662,0 c -1.3117,0 -1.9673,2.0494 -1.9673,6.1485 0,4.0991 0.6556,6.149 1.9673,6.149 h 28.6531 c 1.3937,0 2.0903,-2.0499 2.0903,-6.149 0,-4.0991 -0.6966,-6.1485 -2.0903,-6.1485 z m 130.8437,0 c -1.3117,0 -1.9678,2.0494 -1.9678,6.1485 0,4.0991 0.6561,6.149 1.9678,6.149 h 28.6525 c 1.3937,0 2.0909,-2.0499 2.0909,-6.149 0,-4.0991 -0.6972,-6.1485 -2.0909,-6.1485 z m 130.8432,0 c -1.3117,0 -1.9673,2.0494 -1.9673,6.1485 0,4.0991 0.6556,6.149 1.9673,6.149 h 28.653 c 1.3937,0 2.0903,-2.0499 2.0903,-6.149 0,-4.0991 -0.6966,-6.1485 -2.0903,-6.1485 z m -621.5063,16.3556 c -1.3117,0 -1.9678,2.0494 -1.9678,6.1485 0,4.0991 0.6561,6.1485 1.9678,6.1485 h 61.3637 c 1.3937,0 2.0904,-2.0494 2.0904,-6.1485 0,-4.0991 -0.6967,-6.1485 -2.0904,-6.1485 z m 98.1326,0 c -1.3118,0 -1.9674,2.0494 -1.9674,6.1485 0,4.0991 0.6556,6.1485 1.9674,6.1485 h 28.653 c 1.3937,0 2.0903,-2.0494 2.0903,-6.1485 0,-4.0991 -0.6966,-6.1485 -2.0903,-6.1485 z m 81.7774,0 c -1.3117,0 -1.9678,2.0494 -1.9678,6.1485 0,4.0991 0.6561,6.1485 1.9678,6.1485 h 28.6525 c 1.3937,0 2.0908,-2.0494 2.0908,-6.1485 0,-4.0991 -0.6971,-6.1485 -2.0908,-6.1485 z m 49.0663,0 c -1.3118,0 -1.9679,2.0494 -1.9679,6.1485 0,4.0991 0.6561,6.1485 1.9679,6.1485 h 28.6525 c 1.3937,0 2.0908,-2.0494 2.0908,-6.1485 0,-4.0991 -0.6971,-6.1485 -2.0908,-6.1485 z m 81.7769,0 c -1.3117,0 -1.9673,2.0494 -1.9673,6.1485 0,4.0991 0.6556,6.1485 1.9673,6.1485 h 28.653 c 1.3937,0 2.0903,-2.0494 2.0903,-6.1485 0,-4.0991 -0.6966,-6.1485 -2.0903,-6.1485 z m 65.4218,0 c -1.3117,0 -1.9678,2.0494 -1.9678,6.1485 0,4.0991 0.6561,6.1485 1.9678,6.1485 h 77.7193 c 1.3937,0 2.0903,-2.0494 2.0903,-6.1485 0,-4.0991 -0.6966,-6.1485 -2.0903,-6.1485 z m 114.4881,0 c -1.3117,0 -1.9678,2.0494 -1.9678,6.1485 0,4.0991 0.6561,6.1485 1.9678,6.1485 h 94.0744 c 1.3937,0 2.0908,-2.0494 2.0908,-6.1485 0,-4.0991 -0.6971,-6.1485 -2.0908,-6.1485 z m 130.8432,0 c -1.3117,0 -1.9673,2.0494 -1.9673,6.1485 0,4.0991 0.6556,6.1485 1.9673,6.1485 h 28.653 c 1.3937,0 2.0903,-2.0494 2.0903,-6.1485 0,-4.0991 -0.6966,-6.1485 -2.0903,-6.1485 z m -605.1507,16.3551 c -1.3117,0 -1.9678,2.0499 -1.9678,6.149 0,4.0991 0.6561,6.1484 1.9678,6.1484 h 28.6526 c 1.3937,0 2.0908,-2.0493 2.0908,-6.1484 0,-4.0991 -0.6971,-6.149 -2.0908,-6.149 z m 81.777,0 c -1.3118,0 -1.9674,2.0499 -1.9674,6.149 0,4.0991 0.6556,6.1484 1.9674,6.1484 h 28.653 c 1.3937,0 2.0903,-2.0493 2.0903,-6.1484 0,-4.0991 -0.6966,-6.149 -2.0903,-6.149 z m 81.7774,0 c -1.3117,0 -1.9678,2.0499 -1.9678,6.149 0,4.0991 0.6561,6.1484 1.9678,6.1484 h 28.6525 c 1.3937,0 2.0908,-2.0493 2.0908,-6.1484 0,-4.0991 -0.6971,-6.149 -2.0908,-6.149 z m 49.0663,0 c -1.3118,0 -1.9679,2.0499 -1.9679,6.149 0,4.0991 0.6561,6.1484 1.9679,6.1484 h 28.6525 c 1.3937,0 2.0908,-2.0493 2.0908,-6.1484 0,-4.0991 -0.6971,-6.149 -2.0908,-6.149 z m 81.7769,0 c -1.3117,0 -1.9673,2.0499 -1.9673,6.149 0,4.0991 0.6556,6.1484 1.9673,6.1484 h 28.653 c 1.3937,0 2.0903,-2.0493 2.0903,-6.1484 0,-4.0991 -0.6966,-6.149 -2.0903,-6.149 z m 130.8437,0 c -1.3117,0 -1.9679,2.0499 -1.9679,6.149 0,4.0991 0.6562,6.1484 1.9679,6.1484 h 28.6525 c 1.3937,0 2.0908,-2.0493 2.0908,-6.1484 0,-4.0991 -0.6971,-6.149 -2.0908,-6.149 z m 49.0662,0 c -1.3117,0 -1.9678,2.0499 -1.9678,6.149 0,4.0991 0.6561,6.1484 1.9678,6.1484 h 28.6525 c 1.3937,0 2.0909,-2.0493 2.0909,-6.1484 0,-4.0991 -0.6972,-6.149 -2.0909,-6.149 z m 130.8432,0 c -1.3117,0 -1.9673,2.0499 -1.9673,6.149 0,4.0991 0.6556,6.1484 1.9673,6.1484 h 28.653 c 1.3937,0 2.0903,-2.0493 2.0903,-6.1484 0,-4.0991 -0.6966,-6.149 -2.0903,-6.149 z m -605.1507,16.3556 c -1.3117,0 -1.9678,2.0499 -1.9678,6.149 0,4.0991 0.6561,6.1484 1.9678,6.1484 h 28.6526 c 1.3937,0 2.0908,-2.0493 2.0908,-6.1484 0,-4.0991 -0.6971,-6.149 -2.0908,-6.149 z m 81.777,0 c -1.3118,0 -1.9674,2.0499 -1.9674,6.149 0,4.0991 0.6556,6.1484 1.9674,6.1484 h 28.653 c 1.3937,0 2.0903,-2.0493 2.0903,-6.1484 0,-4.0991 -0.6966,-6.149 -2.0903,-6.149 z m 81.7774,0 c -1.3117,0 -1.9678,2.0499 -1.9678,6.149 0,4.0991 0.6561,6.1484 1.9678,6.1484 h 28.6525 c 1.3937,0 2.0908,-2.0493 2.0908,-6.1484 0,-4.0991 -0.6971,-6.149 -2.0908,-6.149 z m 49.0663,0 c -1.3118,0 -1.9679,2.0499 -1.9679,6.149 0,4.0991 0.6561,6.1484 1.9679,6.1484 h 28.6525 c 1.3937,0 2.0908,-2.0493 2.0908,-6.1484 0,-4.0991 -0.6971,-6.149 -2.0908,-6.149 z m 81.7769,0 c -1.3117,0 -1.9673,2.0499 -1.9673,6.149 0,4.0991 0.6556,6.1484 1.9673,6.1484 h 28.653 c 1.3937,0 2.0903,-2.0493 2.0903,-6.1484 0,-4.0991 -0.6966,-6.149 -2.0903,-6.149 z m 49.0662,0 c -1.3117,0 -1.9673,2.0499 -1.9673,6.149 0,4.0991 0.6556,6.1484 1.9673,6.1484 h 28.6531 c 1.3937,0 2.0903,-2.0493 2.0903,-6.1484 0,-4.0991 -0.6966,-6.149 -2.0903,-6.149 z m 81.7775,0 c -1.3117,0 -1.9679,2.0499 -1.9679,6.149 0,4.0991 0.6562,6.1484 1.9679,6.1484 h 28.6525 c 1.3937,0 2.0908,-2.0493 2.0908,-6.1484 0,-4.0991 -0.6971,-6.149 -2.0908,-6.149 z m 49.0662,0 c -1.3117,0 -1.9678,2.0499 -1.9678,6.149 0,4.0991 0.6561,6.1484 1.9678,6.1484 h 28.6525 c 1.3937,0 2.0909,-2.0493 2.0909,-6.1484 0,-4.0991 -0.6972,-6.149 -2.0909,-6.149 z m 147.1988,0 c -1.3117,0 -1.9673,2.0499 -1.9673,6.149 0,4.0991 0.6556,6.1484 1.9673,6.1484 h 28.653 c 1.3937,0 2.0903,-2.0493 2.0903,-6.1484 0,-4.0991 -0.6966,-6.149 -2.0903,-6.149 z m 65.4218,0 c -1.3117,0 -1.9673,2.0499 -1.9673,6.149 0,4.0991 0.6556,6.1484 1.9673,6.1484 h 28.6531 c 1.3937,0 2.0903,-2.0493 2.0903,-6.1484 0,-4.0991 -0.6966,-6.149 -2.0903,-6.149 z m -686.9281,16.3556 c -1.3117,0 -1.9678,2.0493 -1.9678,6.1485 0,4.0991 0.6561,6.1489 1.9678,6.1489 h 28.6526 c 1.3937,0 2.0908,-2.0498 2.0908,-6.1489 0,-4.0992 -0.6971,-6.1485 -2.0908,-6.1485 z m 98.1326,0 c -1.3118,0 -1.9679,2.0493 -1.9679,6.1485 0,4.0991 0.6561,6.1489 1.9679,6.1489 h 77.7192 c 1.3937,0 2.0903,-2.0498 2.0903,-6.1489 0,-4.0992 -0.6966,-6.1485 -2.0903,-6.1485 z m 130.8431,0 c -1.3117,0 -1.9673,2.0493 -1.9673,6.1485 0,4.0991 0.6556,6.1489 1.9673,6.1489 h 77.7193 c 1.3937,0 2.0908,-2.0498 2.0908,-6.1489 0,-4.0992 -0.6971,-6.1485 -2.0908,-6.1485 z m 130.8437,0 c -1.3117,0 -1.9678,2.0493 -1.9678,6.1485 0,4.0991 0.6561,6.1489 1.9678,6.1489 h 77.7193 c 1.3937,0 2.0903,-2.0498 2.0903,-6.1489 0,-4.0992 -0.6966,-6.1485 -2.0903,-6.1485 z m 114.4881,0 c -1.3117,0 -1.9678,2.0493 -1.9678,6.1485 0,4.0991 0.6561,6.1489 1.9678,6.1489 h 110.43 c 1.3937,0 2.0903,-2.0498 2.0903,-6.1489 0,-4.0992 -0.6966,-6.1485 -2.0903,-6.1485 z m 163.5544,0 c -1.3117,0 -1.9679,2.0493 -1.9679,6.1485 0,4.0991 0.6562,6.1489 1.9679,6.1489 h 61.3637 c 1.3937,0 2.0903,-2.0498 2.0903,-6.1489 0,-4.0992 -0.6966,-6.1485 -2.0903,-6.1485 z m -664.4768,38.0116 c -2.2466,0 -4.1721,0.8024 -5.7769,2.4071 -1.5245,1.5245 -2.2867,3.4099 -2.2867,5.6565 v 95.9249 c 0,2.2467 0.7622,4.1722 2.2867,5.7769 1.6048,1.5245 3.5303,2.2867 5.7769,2.2867 h 96.0448 c 2.2467,0 4.1325,-0.7622 5.657,-2.2867 1.5246,-1.6047 2.2867,-3.5302 2.2867,-5.7769 0,-2.1664 -0.8023,-4.0121 -2.4071,-5.5366 -1.5245,-1.6048 -3.3702,-2.4071 -5.5366,-2.4071 h -64.0297 c -2.2466,0 -4.1726,-0.7622 -5.7774,-2.2867 -1.5245,-1.6047 -2.2867,-3.5307 -2.2867,-5.7774 v -15.8869 c 0,-2.2466 0.7622,-4.1325 2.2867,-5.657 1.6048,-1.6048 3.5308,-2.4071 5.7774,-2.4071 h 48.0224 c 2.2467,0 4.132,-0.7622 5.6565,-2.2867 1.5245,-1.6047 2.2872,-3.5302 2.2872,-5.7769 0,-2.1664 -0.8023,-4.0121 -2.4071,-5.5366 -1.5245,-1.6048 -3.3702,-2.4071 -5.5366,-2.4071 h -48.0224 c -2.2466,0 -4.1726,-0.7621 -5.7774,-2.2867 -1.5245,-1.6047 -2.2867,-3.5307 -2.2867,-5.7774 v -15.8869 c 0,-2.2466 0.7622,-4.1325 2.2867,-5.657 1.6048,-1.6048 3.5308,-2.4071 5.7774,-2.4071 h 64.0297 c 2.1664,0 4.0121,-0.7621 5.5366,-2.2867 1.6048,-1.6047 2.4071,-3.4906 2.4071,-5.657 0,-2.2466 -0.7621,-4.132 -2.2867,-5.6565 -1.5245,-1.6047 -3.4103,-2.4071 -5.657,-2.4071 z m 144.0672,0 c -5.6167,0 -11.0326,2.6079 -16.2481,7.8233 -5.2155,5.1352 -7.8233,10.5111 -7.8233,16.1277 v 16.0073 c 0,8.0238 4.6137,15.0048 13.841,20.9424 3.2095,2.0862 6.6197,3.129 10.2304,3.129 h 48.0224 c 2.2467,0 4.1325,0.8023 5.657,2.4071 1.5245,1.5245 2.2867,3.4104 2.2867,5.657 v 15.8869 c 0,2.2467 -0.7622,4.1727 -2.2867,5.7774 -1.5245,1.5245 -3.4103,2.2867 -5.657,2.2867 h -32.0151 c -3.37,0 -5.6565,-1.3642 -6.8601,-4.0922 -0.8023,-2.6479 -1.6047,-5.2557 -2.407,-7.8233 -1.2036,-2.7281 -3.4504,-4.0918 -6.7402,-4.0918 h -16.0073 c -2.2467,0 -4.1727,0.7622 -5.7774,2.2867 -1.5245,1.5245 -2.2867,3.4098 -2.2867,5.6565 0,5.6969 2.5677,11.153 7.7029,16.3685 5.2155,5.1352 10.6716,7.7029 16.3685,7.7029 h 64.0302 c 5.6167,0 10.9925,-2.6078 16.1277,-7.8233 5.2155,-5.2155 7.8233,-10.6314 7.8233,-16.2481 v -15.8869 c 0,-8.0238 -4.6137,-15.0048 -13.841,-20.9424 -3.2095,-2.0862 -6.5795,-3.129 -10.11,-3.129 h -48.0229 c -2.2467,0 -4.1722,-0.7621 -5.7769,-2.2867 -1.5245,-1.6047 -2.2867,-3.5307 -2.2867,-5.7774 v -16.0073 c 0,-2.2466 0.7622,-4.1325 2.2867,-5.657 1.6047,-1.5245 3.5302,-2.2867 5.7769,-2.2867 h 16.0078 c 3.2898,0 5.5361,1.3642 6.7396,4.0923 0.8024,2.5676 1.6053,5.1754 2.4076,7.8233 1.2036,2.7281 3.4901,4.0922 6.8601,4.0922 h 16.0078 c 2.2467,0 4.132,-0.7627 5.6565,-2.2872 1.5245,-1.6047 2.2867,-3.5302 2.2867,-5.7769 0,-5.6166 -2.6078,-10.9925 -7.8233,-16.1277 -5.1352,-5.2154 -10.511,-7.8233 -16.1277,-7.8233 z m 144.0672,0 c -5.376,0 -9.9494,1.8853 -13.7206,5.6565 l -20.7016,20.7016 c -3.7712,3.7712 -5.6565,8.3045 -5.6565,13.6002 v 32.1355 c 0,5.2957 1.8853,9.829 5.6565,13.6002 l 20.7016,20.7016 c 3.7712,3.7712 8.3446,5.6565 13.7206,5.6565 h 48.0224 c 5.6166,0 10.9924,-2.6078 16.1277,-7.8233 5.2154,-5.2155 7.8233,-10.6314 7.8233,-16.2481 0,-2.1664 -0.8024,-4.0116 -2.4071,-5.5361 -1.5245,-1.6048 -3.3702,-2.4071 -5.5366,-2.4071 h -16.0073 c -3.37,0 -5.6565,1.3637 -6.8601,4.0918 -0.8024,2.6478 -1.6052,5.2556 -2.4076,7.8233 -1.2036,2.728 -3.4499,4.0922 -6.7396,4.0922 h -16.0078 c -5.6167,0 -11.0327,-2.5677 -16.2481,-7.7029 -5.2155,-5.2154 -7.8233,-10.6314 -7.8233,-16.2481 v -32.1355 c 0,-5.6166 2.6078,-10.9925 7.8233,-16.1277 5.2154,-5.2155 10.6314,-7.8233 16.2481,-7.8233 h 16.0078 c 3.2897,0 5.536,1.3642 6.7396,4.0923 0.8024,2.5676 1.6052,5.1754 2.4076,7.8233 1.2036,2.7281 3.4901,4.0922 6.8601,4.0922 h 16.0073 c 2.2466,0 4.1325,-0.7627 5.657,-2.2872 1.5245,-1.6047 2.2867,-3.5302 2.2867,-5.7769 0,-5.6166 -2.6079,-10.9925 -7.8233,-16.1277 -5.1353,-5.2154 -10.5111,-7.8233 -16.1277,-7.8233 z m 128.0599,0 c -5.376,0 -9.95,1.8853 -13.7212,5.6565 l -20.701,20.7016 c -3.7712,3.7712 -5.657,8.3045 -5.657,13.6002 v 64.0302 c 0,2.2467 0.7621,4.1722 2.2866,5.7769 1.6048,1.5245 3.5308,2.2867 5.7775,2.2867 h 16.0073 c 5.3759,0 8.0641,-3.9313 8.0641,-11.7946 0,-0.9629 -0.04,-2.3672 -0.1204,-4.2127 -0.08,-1.8455 -0.1205,-3.2498 -0.1205,-4.2127 0,-7.8633 2.7284,-11.7946 8.1846,-11.7946 h 32.0145 c 5.376,0 8.0642,3.9313 8.0642,11.7946 0,0.9629 -0.04,2.3672 -0.1205,4.2127 -0.08,1.8455 -0.1204,3.2498 -0.1204,4.2127 0,7.8633 2.7284,11.7946 8.1846,11.7946 h 16.0072 c 2.2467,0 4.1325,-0.7622 5.6571,-2.2867 1.5245,-1.6047 2.2866,-3.5302 2.2866,-5.7769 v -64.0302 c 0,-5.2957 -1.8858,-9.829 -5.657,-13.6002 l -20.701,-20.7016 c -3.7712,-3.7712 -8.305,-5.6565 -13.6008,-5.6565 z m 96.0442,0 c -2.2466,0 -4.1721,0.7622 -5.7769,2.2867 -1.5245,1.5245 -2.2867,3.4104 -2.2867,5.657 v 96.0448 c 0,2.2467 0.7622,4.1722 2.2867,5.7769 1.6048,1.5245 3.5303,2.2867 5.7769,2.2867 h 16.0078 c 5.376,0 8.0636,-3.9313 8.0636,-11.7946 0,-0.9629 -0.04,-2.3672 -0.1199,-4.2127 -0.08,-1.8455 -0.1204,-3.2498 -0.1204,-4.2127 0,-7.8633 2.7278,-11.7946 8.184,-11.7946 h 48.0224 c 5.6167,0 10.9925,-2.6078 16.1277,-7.8233 5.2155,-5.2154 7.8233,-10.6314 7.8233,-16.2481 v -32.0151 c 0,-5.6166 -2.6078,-10.9925 -7.8233,-16.1277 -5.1352,-5.2154 -10.511,-7.8233 -16.1277,-7.8233 z m 128.0599,0 c -2.2467,0 -4.1721,0.8024 -5.7769,2.4071 -1.5245,1.5245 -2.2872,3.4099 -2.2872,5.6565 v 95.9249 c 0,2.2467 0.7627,4.1722 2.2872,5.7769 1.6048,1.5245 3.5302,2.2867 5.7769,2.2867 h 96.0448 c 2.2467,0 4.1325,-0.7622 5.657,-2.2867 1.5245,-1.6047 2.2867,-3.5302 2.2867,-5.7769 0,-2.1664 -0.8023,-4.0121 -2.4071,-5.5366 -1.5245,-1.6048 -3.3702,-2.4071 -5.5366,-2.4071 h -64.0297 c -2.2467,0 -4.1727,-0.7622 -5.7774,-2.2867 -1.5245,-1.6047 -2.2867,-3.5307 -2.2867,-5.7774 v -15.8869 c 0,-2.2466 0.7622,-4.1325 2.2867,-5.657 1.6047,-1.6048 3.5307,-2.4071 5.7774,-2.4071 h 48.0224 c 2.2467,0 4.132,-0.7622 5.6565,-2.2867 1.5245,-1.6047 2.2872,-3.5302 2.2872,-5.7769 0,-2.1664 -0.8028,-4.0121 -2.4076,-5.5366 -1.5245,-1.6048 -3.3697,-2.4071 -5.5361,-2.4071 h -48.0224 c -2.2467,0 -4.1727,-0.7621 -5.7774,-2.2867 -1.5245,-1.6047 -2.2867,-3.5307 -2.2867,-5.7774 v -15.8869 c 0,-2.2466 0.7622,-4.1325 2.2867,-5.657 1.6047,-1.6048 3.5307,-2.4071 5.7774,-2.4071 h 64.0297 c 2.1664,0 4.0121,-0.7621 5.5366,-2.2867 1.6048,-1.6047 2.4071,-3.4906 2.4071,-5.657 0,-2.2466 -0.7622,-4.132 -2.2867,-5.6565 -1.5245,-1.6047 -3.4103,-2.4071 -5.657,-2.4071 z m -208.0968,16.0073 c 5.6166,0 10.9924,2.6078 16.1277,7.8233 5.2154,5.1352 7.8232,10.5111 7.8232,16.1277 v 16.0078 c 0,2.2467 -0.7621,4.1722 -2.2866,5.7769 -1.5246,1.5245 -3.4104,2.2867 -5.6571,2.2867 h -32.0145 c -2.2467,0 -4.1727,-0.7622 -5.7775,-2.2867 -1.5245,-1.6047 -2.2866,-3.5302 -2.2866,-5.7769 v -16.0078 c 0,-5.6166 2.6078,-10.9925 7.8232,-16.1277 5.2155,-5.2155 10.6315,-7.8233 16.2482,-7.8233 z m 112.052,0 h 32.0151 c 2.1665,0 4.0121,0.8023 5.5366,2.4071 1.6048,1.5245 2.4071,3.3702 2.4071,5.5366 v 32.0151 c 0,2.2467 -0.7626,4.1722 -2.2872,5.7769 -1.5245,1.5245 -3.4098,2.2867 -5.6565,2.2867 H 8859.28 c -2.2466,0 -4.1721,-0.7622 -5.7769,-2.2867 -1.5245,-1.6047 -2.2867,-3.5302 -2.2867,-5.7769 v -32.0151 c 0,-2.2466 0.7622,-4.1325 2.2867,-5.657 1.6048,-1.5245 3.5303,-2.2867 5.7769,-2.2867 z" /></g><script
     id="mesh_polyfill"
     type="text/javascript">
!function(){const t=&quot;http://www.w3.org/2000/svg&quot;,e=&quot;http://www.w3.org/1999/xlink&quot;,s=&quot;http://www.w3.org/1999/xhtml&quot;,r=2;if(document.createElementNS(t,&quot;meshgradient&quot;).x)return;const n=(t,e,s,r)=&gt;{let n=new x(.5*(e.x+s.x),.5*(e.y+s.y)),o=new x(.5*(t.x+e.x),.5*(t.y+e.y)),i=new x(.5*(s.x+r.x),.5*(s.y+r.y)),a=new x(.5*(n.x+o.x),.5*(n.y+o.y)),h=new x(.5*(n.x+i.x),.5*(n.y+i.y)),l=new x(.5*(a.x+h.x),.5*(a.y+h.y));return[[t,o,a,l],[l,h,i,r]]},o=t=&gt;{let e=t[0].distSquared(t[1]),s=t[2].distSquared(t[3]),r=.25*t[0].distSquared(t[2]),n=.25*t[1].distSquared(t[3]),o=e&gt;s?e:s,i=r&gt;n?r:n;return 18*(o&gt;i?o:i)},i=(t,e)=&gt;Math.sqrt(t.distSquared(e)),a=(t,e)=&gt;t.scale(2/3).add(e.scale(1/3)),h=t=&gt;{let e,s,r,n,o,i,a,h=new g;return t.match(/(\w+\(\s*[^)]+\))+/g).forEach(t=&gt;{let l=t.match(/[\w.-]+/g),d=l.shift();switch(d){case&quot;translate&quot;:2===l.length?e=new g(1,0,0,1,l[0],l[1]):(console.error(&quot;mesh.js: translate does not have 2 arguments!&quot;),e=new g(1,0,0,1,0,0)),h=h.append(e);break;case&quot;scale&quot;:1===l.length?s=new g(l[0],0,0,l[0],0,0):2===l.length?s=new g(l[0],0,0,l[1],0,0):(console.error(&quot;mesh.js: scale does not have 1 or 2 arguments!&quot;),s=new g(1,0,0,1,0,0)),h=h.append(s);break;case&quot;rotate&quot;:if(3===l.length&amp;&amp;(e=new g(1,0,0,1,l[1],l[2]),h=h.append(e)),l[0]){r=l[0]*Math.PI/180;let t=Math.cos(r),e=Math.sin(r);Math.abs(t)&lt;1e-16&amp;&amp;(t=0),Math.abs(e)&lt;1e-16&amp;&amp;(e=0),a=new g(t,e,-e,t,0,0),h=h.append(a)}else console.error(&quot;math.js: No argument to rotate transform!&quot;);3===l.length&amp;&amp;(e=new g(1,0,0,1,-l[1],-l[2]),h=h.append(e));break;case&quot;skewX&quot;:l[0]?(r=l[0]*Math.PI/180,n=Math.tan(r),o=new g(1,0,n,1,0,0),h=h.append(o)):console.error(&quot;math.js: No argument to skewX transform!&quot;);break;case&quot;skewY&quot;:l[0]?(r=l[0]*Math.PI/180,n=Math.tan(r),i=new g(1,n,0,1,0,0),h=h.append(i)):console.error(&quot;math.js: No argument to skewY transform!&quot;);break;case&quot;matrix&quot;:6===l.length?h=h.append(new g(...l)):console.error(&quot;math.js: Incorrect number of arguments for matrix!&quot;);break;default:console.error(&quot;mesh.js: Unhandled transform type: &quot;+d)}}),h},l=t=&gt;{let e=[],s=t.split(/[ ,]+/);for(let t=0,r=s.length-1;t&lt;r;t+=2)e.push(new x(parseFloat(s[t]),parseFloat(s[t+1])));return e},d=(t,e)=&gt;{for(let s in e)t.setAttribute(s,e[s])},c=(t,e,s,r,n)=&gt;{let o,i,a=[0,0,0,0];for(let h=0;h&lt;3;++h)e[h]&lt;t[h]&amp;&amp;e[h]&lt;s[h]||t[h]&lt;e[h]&amp;&amp;s[h]&lt;e[h]?a[h]=0:(a[h]=.5*((e[h]-t[h])/r+(s[h]-e[h])/n),o=Math.abs(3*(e[h]-t[h])/r),i=Math.abs(3*(s[h]-e[h])/n),a[h]&gt;o?a[h]=o:a[h]&gt;i&amp;&amp;(a[h]=i));return a},u=[[1,0,0,0,0,0,0,0,0,0,0,0,0,0,0,0],[0,0,0,0,1,0,0,0,0,0,0,0,0,0,0,0],[-3,3,0,0,-2,-1,0,0,0,0,0,0,0,0,0,0],[2,-2,0,0,1,1,0,0,0,0,0,0,0,0,0,0],[0,0,0,0,0,0,0,0,1,0,0,0,0,0,0,0],[0,0,0,0,0,0,0,0,0,0,0,0,1,0,0,0],[0,0,0,0,0,0,0,0,-3,3,0,0,-2,-1,0,0],[0,0,0,0,0,0,0,0,2,-2,0,0,1,1,0,0],[-3,0,3,0,0,0,0,0,-2,0,-1,0,0,0,0,0],[0,0,0,0,-3,0,3,0,0,0,0,0,-2,0,-1,0],[9,-9,-9,9,6,3,-6,-3,6,-6,3,-3,4,2,2,1],[-6,6,6,-6,-3,-3,3,3,-4,4,-2,2,-2,-2,-1,-1],[2,0,-2,0,0,0,0,0,1,0,1,0,0,0,0,0],[0,0,0,0,2,0,-2,0,0,0,0,0,1,0,1,0],[-6,6,6,-6,-4,-2,4,2,-3,3,-3,3,-2,-1,-2,-1],[4,-4,-4,4,2,2,-2,-2,2,-2,2,-2,1,1,1,1]],f=t=&gt;{let e=[];for(let s=0;s&lt;16;++s){e[s]=0;for(let r=0;r&lt;16;++r)e[s]+=u[s][r]*t[r]}return e},p=(t,e,s)=&gt;{const r=e*e,n=s*s,o=e*e*e,i=s*s*s;return t[0]+t[1]*e+t[2]*r+t[3]*o+t[4]*s+t[5]*s*e+t[6]*s*r+t[7]*s*o+t[8]*n+t[9]*n*e+t[10]*n*r+t[11]*n*o+t[12]*i+t[13]*i*e+t[14]*i*r+t[15]*i*o},y=t=&gt;{let e=[],s=[],r=[];for(let s=0;s&lt;4;++s)e[s]=[],e[s][0]=n(t[0][s],t[1][s],t[2][s],t[3][s]),e[s][1]=[],e[s][1].push(...n(...e[s][0][0])),e[s][1].push(...n(...e[s][0][1])),e[s][2]=[],e[s][2].push(...n(...e[s][1][0])),e[s][2].push(...n(...e[s][1][1])),e[s][2].push(...n(...e[s][1][2])),e[s][2].push(...n(...e[s][1][3]));for(let t=0;t&lt;8;++t){s[t]=[];for(let r=0;r&lt;4;++r)s[t][r]=[],s[t][r][0]=n(e[0][2][t][r],e[1][2][t][r],e[2][2][t][r],e[3][2][t][r]),s[t][r][1]=[],s[t][r][1].push(...n(...s[t][r][0][0])),s[t][r][1].push(...n(...s[t][r][0][1])),s[t][r][2]=[],s[t][r][2].push(...n(...s[t][r][1][0])),s[t][r][2].push(...n(...s[t][r][1][1])),s[t][r][2].push(...n(...s[t][r][1][2])),s[t][r][2].push(...n(...s[t][r][1][3]))}for(let t=0;t&lt;8;++t){r[t]=[];for(let e=0;e&lt;8;++e)r[t][e]=[],r[t][e][0]=s[t][0][2][e],r[t][e][1]=s[t][1][2][e],r[t][e][2]=s[t][2][2][e],r[t][e][3]=s[t][3][2][e]}return r};class x{constructor(t,e){this.x=t||0,this.y=e||0}toString(){return`(x=${this.x}, y=${this.y})`}clone(){return new x(this.x,this.y)}add(t){return new x(this.x+t.x,this.y+t.y)}scale(t){return void 0===t.x?new x(this.x*t,this.y*t):new x(this.x*t.x,this.y*t.y)}distSquared(t){let e=this.x-t.x,s=this.y-t.y;return e*e+s*s}transform(t){let e=this.x*t.a+this.y*t.c+t.e,s=this.x*t.b+this.y*t.d+t.f;return new x(e,s)}}class g{constructor(t,e,s,r,n,o){void 0===t?(this.a=1,this.b=0,this.c=0,this.d=1,this.e=0,this.f=0):(this.a=t,this.b=e,this.c=s,this.d=r,this.e=n,this.f=o)}toString(){return`affine: ${this.a} ${this.c} ${this.e} \n       ${this.b} ${this.d} ${this.f}`}append(t){t instanceof g||console.error(&quot;mesh.js: argument to Affine.append is not affine!&quot;);let e=this.a*t.a+this.c*t.b,s=this.b*t.a+this.d*t.b,r=this.a*t.c+this.c*t.d,n=this.b*t.c+this.d*t.d,o=this.a*t.e+this.c*t.f+this.e,i=this.b*t.e+this.d*t.f+this.f;return new g(e,s,r,n,o,i)}}class w{constructor(t,e){this.nodes=t,this.colors=e}paintCurve(t,e){if(o(this.nodes)&gt;r){const s=n(...this.nodes);let r=[[],[]],o=[[],[]];for(let t=0;t&lt;4;++t)r[0][t]=this.colors[0][t],r[1][t]=(this.colors[0][t]+this.colors[1][t])/2,o[0][t]=r[1][t],o[1][t]=this.colors[1][t];let i=new w(s[0],r),a=new w(s[1],o);i.paintCurve(t,e),a.paintCurve(t,e)}else{let s=Math.round(this.nodes[0].x);if(s&gt;=0&amp;&amp;s&lt;e){let r=4*(~~this.nodes[0].y*e+s);t[r]=Math.round(this.colors[0][0]),t[r+1]=Math.round(this.colors[0][1]),t[r+2]=Math.round(this.colors[0][2]),t[r+3]=Math.round(this.colors[0][3])}}}}class m{constructor(t,e){this.nodes=t,this.colors=e}split(){let t=[[],[],[],[]],e=[[],[],[],[]],s=[[[],[]],[[],[]]],r=[[[],[]],[[],[]]];for(let s=0;s&lt;4;++s){const r=n(this.nodes[0][s],this.nodes[1][s],this.nodes[2][s],this.nodes[3][s]);t[0][s]=r[0][0],t[1][s]=r[0][1],t[2][s]=r[0][2],t[3][s]=r[0][3],e[0][s]=r[1][0],e[1][s]=r[1][1],e[2][s]=r[1][2],e[3][s]=r[1][3]}for(let t=0;t&lt;4;++t)s[0][0][t]=this.colors[0][0][t],s[0][1][t]=this.colors[0][1][t],s[1][0][t]=(this.colors[0][0][t]+this.colors[1][0][t])/2,s[1][1][t]=(this.colors[0][1][t]+this.colors[1][1][t])/2,r[0][0][t]=s[1][0][t],r[0][1][t]=s[1][1][t],r[1][0][t]=this.colors[1][0][t],r[1][1][t]=this.colors[1][1][t];return[new m(t,s),new m(e,r)]}paint(t,e){let s,n=!1;for(let t=0;t&lt;4;++t)if((s=o([this.nodes[0][t],this.nodes[1][t],this.nodes[2][t],this.nodes[3][t]]))&gt;r){n=!0;break}if(n){let s=this.split();s[0].paint(t,e),s[1].paint(t,e)}else{new w([...this.nodes[0]],[...this.colors[0]]).paintCurve(t,e)}}}class b{constructor(t){this.readMesh(t),this.type=t.getAttribute(&quot;type&quot;)||&quot;bilinear&quot;}readMesh(t){let e=[[]],s=[[]],r=Number(t.getAttribute(&quot;x&quot;)),n=Number(t.getAttribute(&quot;y&quot;));e[0][0]=new x(r,n);let o=t.children;for(let t=0,r=o.length;t&lt;r;++t){e[3*t+1]=[],e[3*t+2]=[],e[3*t+3]=[],s[t+1]=[];let r=o[t].children;for(let n=0,o=r.length;n&lt;o;++n){let o=r[n].children;for(let r=0,i=o.length;r&lt;i;++r){let i=r;0!==t&amp;&amp;++i;let h,d=o[r].getAttribute(&quot;path&quot;),c=&quot;l&quot;;null!=d&amp;&amp;(c=(h=d.match(/\s*([lLcC])\s*(.*)/))[1]);let u=l(h[2]);switch(c){case&quot;l&quot;:0===i?(e[3*t][3*n+3]=u[0].add(e[3*t][3*n]),e[3*t][3*n+1]=a(e[3*t][3*n],e[3*t][3*n+3]),e[3*t][3*n+2]=a(e[3*t][3*n+3],e[3*t][3*n])):1===i?(e[3*t+3][3*n+3]=u[0].add(e[3*t][3*n+3]),e[3*t+1][3*n+3]=a(e[3*t][3*n+3],e[3*t+3][3*n+3]),e[3*t+2][3*n+3]=a(e[3*t+3][3*n+3],e[3*t][3*n+3])):2===i?(0===n&amp;&amp;(e[3*t+3][3*n+0]=u[0].add(e[3*t+3][3*n+3])),e[3*t+3][3*n+1]=a(e[3*t+3][3*n],e[3*t+3][3*n+3]),e[3*t+3][3*n+2]=a(e[3*t+3][3*n+3],e[3*t+3][3*n])):(e[3*t+1][3*n]=a(e[3*t][3*n],e[3*t+3][3*n]),e[3*t+2][3*n]=a(e[3*t+3][3*n],e[3*t][3*n]));break;case&quot;L&quot;:0===i?(e[3*t][3*n+3]=u[0],e[3*t][3*n+1]=a(e[3*t][3*n],e[3*t][3*n+3]),e[3*t][3*n+2]=a(e[3*t][3*n+3],e[3*t][3*n])):1===i?(e[3*t+3][3*n+3]=u[0],e[3*t+1][3*n+3]=a(e[3*t][3*n+3],e[3*t+3][3*n+3]),e[3*t+2][3*n+3]=a(e[3*t+3][3*n+3],e[3*t][3*n+3])):2===i?(0===n&amp;&amp;(e[3*t+3][3*n+0]=u[0]),e[3*t+3][3*n+1]=a(e[3*t+3][3*n],e[3*t+3][3*n+3]),e[3*t+3][3*n+2]=a(e[3*t+3][3*n+3],e[3*t+3][3*n])):(e[3*t+1][3*n]=a(e[3*t][3*n],e[3*t+3][3*n]),e[3*t+2][3*n]=a(e[3*t+3][3*n],e[3*t][3*n]));break;case&quot;c&quot;:0===i?(e[3*t][3*n+1]=u[0].add(e[3*t][3*n]),e[3*t][3*n+2]=u[1].add(e[3*t][3*n]),e[3*t][3*n+3]=u[2].add(e[3*t][3*n])):1===i?(e[3*t+1][3*n+3]=u[0].add(e[3*t][3*n+3]),e[3*t+2][3*n+3]=u[1].add(e[3*t][3*n+3]),e[3*t+3][3*n+3]=u[2].add(e[3*t][3*n+3])):2===i?(e[3*t+3][3*n+2]=u[0].add(e[3*t+3][3*n+3]),e[3*t+3][3*n+1]=u[1].add(e[3*t+3][3*n+3]),0===n&amp;&amp;(e[3*t+3][3*n+0]=u[2].add(e[3*t+3][3*n+3]))):(e[3*t+2][3*n]=u[0].add(e[3*t+3][3*n]),e[3*t+1][3*n]=u[1].add(e[3*t+3][3*n]));break;case&quot;C&quot;:0===i?(e[3*t][3*n+1]=u[0],e[3*t][3*n+2]=u[1],e[3*t][3*n+3]=u[2]):1===i?(e[3*t+1][3*n+3]=u[0],e[3*t+2][3*n+3]=u[1],e[3*t+3][3*n+3]=u[2]):2===i?(e[3*t+3][3*n+2]=u[0],e[3*t+3][3*n+1]=u[1],0===n&amp;&amp;(e[3*t+3][3*n+0]=u[2])):(e[3*t+2][3*n]=u[0],e[3*t+1][3*n]=u[1]);break;default:console.error(&quot;mesh.js: &quot;+c+&quot; invalid path type.&quot;)}if(0===t&amp;&amp;0===n||r&gt;0){let e=window.getComputedStyle(o[r]).stopColor.match(/^rgb\s*\(\s*(\d+)\s*,\s*(\d+)\s*,\s*(\d+)\s*\)$/i),a=window.getComputedStyle(o[r]).stopOpacity,h=255;a&amp;&amp;(h=Math.floor(255*a)),e&amp;&amp;(0===i?(s[t][n]=[],s[t][n][0]=Math.floor(e[1]),s[t][n][1]=Math.floor(e[2]),s[t][n][2]=Math.floor(e[3]),s[t][n][3]=h):1===i?(s[t][n+1]=[],s[t][n+1][0]=Math.floor(e[1]),s[t][n+1][1]=Math.floor(e[2]),s[t][n+1][2]=Math.floor(e[3]),s[t][n+1][3]=h):2===i?(s[t+1][n+1]=[],s[t+1][n+1][0]=Math.floor(e[1]),s[t+1][n+1][1]=Math.floor(e[2]),s[t+1][n+1][2]=Math.floor(e[3]),s[t+1][n+1][3]=h):3===i&amp;&amp;(s[t+1][n]=[],s[t+1][n][0]=Math.floor(e[1]),s[t+1][n][1]=Math.floor(e[2]),s[t+1][n][2]=Math.floor(e[3]),s[t+1][n][3]=h))}}e[3*t+1][3*n+1]=new x,e[3*t+1][3*n+2]=new x,e[3*t+2][3*n+1]=new x,e[3*t+2][3*n+2]=new x,e[3*t+1][3*n+1].x=(-4*e[3*t][3*n].x+6*(e[3*t][3*n+1].x+e[3*t+1][3*n].x)+-2*(e[3*t][3*n+3].x+e[3*t+3][3*n].x)+3*(e[3*t+3][3*n+1].x+e[3*t+1][3*n+3].x)+-1*e[3*t+3][3*n+3].x)/9,e[3*t+1][3*n+2].x=(-4*e[3*t][3*n+3].x+6*(e[3*t][3*n+2].x+e[3*t+1][3*n+3].x)+-2*(e[3*t][3*n].x+e[3*t+3][3*n+3].x)+3*(e[3*t+3][3*n+2].x+e[3*t+1][3*n].x)+-1*e[3*t+3][3*n].x)/9,e[3*t+2][3*n+1].x=(-4*e[3*t+3][3*n].x+6*(e[3*t+3][3*n+1].x+e[3*t+2][3*n].x)+-2*(e[3*t+3][3*n+3].x+e[3*t][3*n].x)+3*(e[3*t][3*n+1].x+e[3*t+2][3*n+3].x)+-1*e[3*t][3*n+3].x)/9,e[3*t+2][3*n+2].x=(-4*e[3*t+3][3*n+3].x+6*(e[3*t+3][3*n+2].x+e[3*t+2][3*n+3].x)+-2*(e[3*t+3][3*n].x+e[3*t][3*n+3].x)+3*(e[3*t][3*n+2].x+e[3*t+2][3*n].x)+-1*e[3*t][3*n].x)/9,e[3*t+1][3*n+1].y=(-4*e[3*t][3*n].y+6*(e[3*t][3*n+1].y+e[3*t+1][3*n].y)+-2*(e[3*t][3*n+3].y+e[3*t+3][3*n].y)+3*(e[3*t+3][3*n+1].y+e[3*t+1][3*n+3].y)+-1*e[3*t+3][3*n+3].y)/9,e[3*t+1][3*n+2].y=(-4*e[3*t][3*n+3].y+6*(e[3*t][3*n+2].y+e[3*t+1][3*n+3].y)+-2*(e[3*t][3*n].y+e[3*t+3][3*n+3].y)+3*(e[3*t+3][3*n+2].y+e[3*t+1][3*n].y)+-1*e[3*t+3][3*n].y)/9,e[3*t+2][3*n+1].y=(-4*e[3*t+3][3*n].y+6*(e[3*t+3][3*n+1].y+e[3*t+2][3*n].y)+-2*(e[3*t+3][3*n+3].y+e[3*t][3*n].y)+3*(e[3*t][3*n+1].y+e[3*t+2][3*n+3].y)+-1*e[3*t][3*n+3].y)/9,e[3*t+2][3*n+2].y=(-4*e[3*t+3][3*n+3].y+6*(e[3*t+3][3*n+2].y+e[3*t+2][3*n+3].y)+-2*(e[3*t+3][3*n].y+e[3*t][3*n+3].y)+3*(e[3*t][3*n+2].y+e[3*t+2][3*n].y)+-1*e[3*t][3*n].y)/9}}this.nodes=e,this.colors=s}paintMesh(t,e){let s=(this.nodes.length-1)/3,r=(this.nodes[0].length-1)/3;if(&quot;bilinear&quot;===this.type||s&lt;2||r&lt;2){let n;for(let o=0;o&lt;s;++o)for(let s=0;s&lt;r;++s){let r=[];for(let t=3*o,e=3*o+4;t&lt;e;++t)r.push(this.nodes[t].slice(3*s,3*s+4));let i=[];i.push(this.colors[o].slice(s,s+2)),i.push(this.colors[o+1].slice(s,s+2)),(n=new m(r,i)).paint(t,e)}}else{let n,o,a,h,l,d,u;const x=s,g=r;s++,r++;let w=new Array(s);for(let t=0;t&lt;s;++t){w[t]=new Array(r);for(let e=0;e&lt;r;++e)w[t][e]=[],w[t][e][0]=this.nodes[3*t][3*e],w[t][e][1]=this.colors[t][e]}for(let t=0;t&lt;s;++t)for(let e=0;e&lt;r;++e)0!==t&amp;&amp;t!==x&amp;&amp;(n=i(w[t-1][e][0],w[t][e][0]),o=i(w[t+1][e][0],w[t][e][0]),w[t][e][2]=c(w[t-1][e][1],w[t][e][1],w[t+1][e][1],n,o)),0!==e&amp;&amp;e!==g&amp;&amp;(n=i(w[t][e-1][0],w[t][e][0]),o=i(w[t][e+1][0],w[t][e][0]),w[t][e][3]=c(w[t][e-1][1],w[t][e][1],w[t][e+1][1],n,o));for(let t=0;t&lt;r;++t){w[0][t][2]=[],w[x][t][2]=[];for(let e=0;e&lt;4;++e)n=i(w[1][t][0],w[0][t][0]),o=i(w[x][t][0],w[x-1][t][0]),w[0][t][2][e]=n&gt;0?2*(w[1][t][1][e]-w[0][t][1][e])/n-w[1][t][2][e]:0,w[x][t][2][e]=o&gt;0?2*(w[x][t][1][e]-w[x-1][t][1][e])/o-w[x-1][t][2][e]:0}for(let t=0;t&lt;s;++t){w[t][0][3]=[],w[t][g][3]=[];for(let e=0;e&lt;4;++e)n=i(w[t][1][0],w[t][0][0]),o=i(w[t][g][0],w[t][g-1][0]),w[t][0][3][e]=n&gt;0?2*(w[t][1][1][e]-w[t][0][1][e])/n-w[t][1][3][e]:0,w[t][g][3][e]=o&gt;0?2*(w[t][g][1][e]-w[t][g-1][1][e])/o-w[t][g-1][3][e]:0}for(let s=0;s&lt;x;++s)for(let r=0;r&lt;g;++r){let n=i(w[s][r][0],w[s+1][r][0]),o=i(w[s][r+1][0],w[s+1][r+1][0]),c=i(w[s][r][0],w[s][r+1][0]),x=i(w[s+1][r][0],w[s+1][r+1][0]),g=[[],[],[],[]];for(let t=0;t&lt;4;++t){(d=[])[0]=w[s][r][1][t],d[1]=w[s+1][r][1][t],d[2]=w[s][r+1][1][t],d[3]=w[s+1][r+1][1][t],d[4]=w[s][r][2][t]*n,d[5]=w[s+1][r][2][t]*n,d[6]=w[s][r+1][2][t]*o,d[7]=w[s+1][r+1][2][t]*o,d[8]=w[s][r][3][t]*c,d[9]=w[s+1][r][3][t]*x,d[10]=w[s][r+1][3][t]*c,d[11]=w[s+1][r+1][3][t]*x,d[12]=0,d[13]=0,d[14]=0,d[15]=0,u=f(d);for(let e=0;e&lt;9;++e){g[t][e]=[];for(let s=0;s&lt;9;++s)g[t][e][s]=p(u,e/8,s/8),g[t][e][s]&gt;255?g[t][e][s]=255:g[t][e][s]&lt;0&amp;&amp;(g[t][e][s]=0)}}h=[];for(let t=3*s,e=3*s+4;t&lt;e;++t)h.push(this.nodes[t].slice(3*r,3*r+4));l=y(h);for(let s=0;s&lt;8;++s)for(let r=0;r&lt;8;++r)(a=new m(l[s][r],[[[g[0][s][r],g[1][s][r],g[2][s][r],g[3][s][r]],[g[0][s][r+1],g[1][s][r+1],g[2][s][r+1],g[3][s][r+1]]],[[g[0][s+1][r],g[1][s+1][r],g[2][s+1][r],g[3][s+1][r]],[g[0][s+1][r+1],g[1][s+1][r+1],g[2][s+1][r+1],g[3][s+1][r+1]]]])).paint(t,e)}}}transform(t){if(t instanceof x)for(let e=0,s=this.nodes.length;e&lt;s;++e)for(let s=0,r=this.nodes[0].length;s&lt;r;++s)this.nodes[e][s]=this.nodes[e][s].add(t);else if(t instanceof g)for(let e=0,s=this.nodes.length;e&lt;s;++e)for(let s=0,r=this.nodes[0].length;s&lt;r;++s)this.nodes[e][s]=this.nodes[e][s].transform(t)}scale(t){for(let e=0,s=this.nodes.length;e&lt;s;++e)for(let s=0,r=this.nodes[0].length;s&lt;r;++s)this.nodes[e][s]=this.nodes[e][s].scale(t)}}document.querySelectorAll(&quot;rect,circle,ellipse,path,text&quot;).forEach((r,n)=&gt;{let o=r.getAttribute(&quot;id&quot;);o||(o=&quot;patchjs_shape&quot;+n,r.setAttribute(&quot;id&quot;,o));const i=r.style.fill.match(/^url\(\s*&quot;?\s*#([^\s&quot;]+)&quot;?\s*\)/),a=r.style.stroke.match(/^url\(\s*&quot;?\s*#([^\s&quot;]+)&quot;?\s*\)/);if(i&amp;&amp;i[1]){const a=document.getElementById(i[1]);if(a&amp;&amp;&quot;meshgradient&quot;===a.nodeName){const i=r.getBBox();let l=document.createElementNS(s,&quot;canvas&quot;);d(l,{width:i.width,height:i.height});const c=l.getContext(&quot;2d&quot;);let u=c.createImageData(i.width,i.height);const f=new b(a);&quot;objectBoundingBox&quot;===a.getAttribute(&quot;gradientUnits&quot;)&amp;&amp;f.scale(new x(i.width,i.height));const p=a.getAttribute(&quot;gradientTransform&quot;);null!=p&amp;&amp;f.transform(h(p)),&quot;userSpaceOnUse&quot;===a.getAttribute(&quot;gradientUnits&quot;)&amp;&amp;f.transform(new x(-i.x,-i.y)),f.paintMesh(u.data,l.width),c.putImageData(u,0,0);const y=document.createElementNS(t,&quot;image&quot;);d(y,{width:i.width,height:i.height,x:i.x,y:i.y});let g=l.toDataURL();y.setAttributeNS(e,&quot;xlink:href&quot;,g),r.parentNode.insertBefore(y,r),r.style.fill=&quot;none&quot;;const w=document.createElementNS(t,&quot;use&quot;);w.setAttributeNS(e,&quot;xlink:href&quot;,&quot;#&quot;+o);const m=&quot;patchjs_clip&quot;+n,M=document.createElementNS(t,&quot;clipPath&quot;);M.setAttribute(&quot;id&quot;,m),M.appendChild(w),r.parentElement.insertBefore(M,r),y.setAttribute(&quot;clip-path&quot;,&quot;url(#&quot;+m+&quot;)&quot;),u=null,l=null,g=null}}if(a&amp;&amp;a[1]){const o=document.getElementById(a[1]);if(o&amp;&amp;&quot;meshgradient&quot;===o.nodeName){const i=parseFloat(r.style.strokeWidth.slice(0,-2))*(parseFloat(r.style.strokeMiterlimit)||parseFloat(r.getAttribute(&quot;stroke-miterlimit&quot;))||1),a=r.getBBox(),l=Math.trunc(a.width+i),c=Math.trunc(a.height+i),u=Math.trunc(a.x-i/2),f=Math.trunc(a.y-i/2);let p=document.createElementNS(s,&quot;canvas&quot;);d(p,{width:l,height:c});const y=p.getContext(&quot;2d&quot;);let g=y.createImageData(l,c);const w=new b(o);&quot;objectBoundingBox&quot;===o.getAttribute(&quot;gradientUnits&quot;)&amp;&amp;w.scale(new x(l,c));const m=o.getAttribute(&quot;gradientTransform&quot;);null!=m&amp;&amp;w.transform(h(m)),&quot;userSpaceOnUse&quot;===o.getAttribute(&quot;gradientUnits&quot;)&amp;&amp;w.transform(new x(-u,-f)),w.paintMesh(g.data,p.width),y.putImageData(g,0,0);const M=document.createElementNS(t,&quot;image&quot;);d(M,{width:l,height:c,x:0,y:0});let S=p.toDataURL();M.setAttributeNS(e,&quot;xlink:href&quot;,S);const k=&quot;pattern_clip&quot;+n,A=document.createElementNS(t,&quot;pattern&quot;);d(A,{id:k,patternUnits:&quot;userSpaceOnUse&quot;,width:l,height:c,x:u,y:f}),A.appendChild(M),o.parentNode.appendChild(A),r.style.stroke=&quot;url(#&quot;+k+&quot;)&quot;,g=null,p=null,S=null}}})}();
</script></svg>
